<svg width="30" height="30" viewBox="0 0 80 30" fill="none" xmlns="http://www.w3.org/2000/svg">
<path d="M11.0792 16.1214V20.0631H14.0667V14.6593C13.3091 15.4304 12.2626 15.963 11.0792 16.1214Z" fill="#003DA5"/>
<path d="M2.98488 11.2917V7.34857H0.0175476V12.7426C0.77257 11.9791 1.81101 11.4512 2.98488 11.2917Z" fill="#003DA5"/>
<path d="M78.8894 6.2415H65.5362C64.9227 6.2415 64.4256 5.79398 64.4256 5.2421C64.4256 4.69008 64.9229 4.24271 65.5362 4.24271H78.8894C79.5028 4.24271 80 4.69023 80 5.2421C80 5.79412 79.5027 6.2415 78.8894 6.2415Z" fill="#003DA5"/>
<path d="M75.2198 2.49879H61.8666C61.2531 2.49879 60.756 2.05127 60.756 1.49939C60.756 0.947376 61.2533 0.5 61.8666 0.5H75.2198C75.8332 0.5 76.3304 0.94752 76.3304 1.49939C76.3304 2.05141 75.8331 2.49879 75.2198 2.49879Z" fill="#003DA5"/>
<path d="M73.0589 9.99171H59.7058C59.0923 9.99171 58.5951 9.54419 58.5951 8.99231C58.5951 8.44029 59.0925 7.99292 59.7058 7.99292H73.0589C73.6724 7.99292 74.1696 8.44044 74.1696 8.99231C74.1696 9.54433 73.6722 9.99171 73.0589 9.99171Z" fill="#003DA5"/>
<path d="M2.98856 20.0632H0V15.7096C0 13.8632 1.66928 12.3612 3.72107 12.3612H10.3392C10.7431 12.3612 11.0717 12.0656 11.0717 11.7022V7.34857H14.0602V11.7022C14.0602 13.5486 12.391 15.0506 10.3392 15.0506H3.72107C3.31718 15.0506 2.98856 15.3462 2.98856 15.7096V20.0632Z" fill="#1AA6A6"/>
<path d="M39.6911 10.2525H42.8947L37.6158 19.8252H34.8957L29.6169 10.2525H32.9816L36.3464 17.1963L39.6911 10.2525Z" fill="#003DA5"/>
<path d="M23.1694 10.0178C26.6268 10.0178 29.2982 12.204 29.2134 15.257C29.2104 15.3657 29.1866 15.9458 29.1731 16.0547H19.7042C19.9461 16.6954 20.7872 18.0669 23.451 18.0669C25.1358 18.0669 26.6077 17.4084 27.1988 17.106L28.3875 18.9915C27.5544 19.354 25.899 20.0611 23.2903 20.0611C18.7459 20.0611 16.6015 17.7061 16.6015 15.0395C16.6015 12.1027 19.4382 10.0178 23.1696 10.0178H23.1694ZM26.1306 14.2417C26.0499 13.1782 24.9405 12.0119 22.9678 12.0119C20.5209 12.0119 19.7916 13.5651 19.6035 14.2417H26.1308H26.1306Z" fill="#003DA5"/>
<path d="M53.2548 11.4492L53.2952 10.2527H56.116V19.8256H53.2952L53.2548 18.6289H53.2144C52.6099 19.0763 51.0146 20.0612 48.8824 20.0612C45.0362 20.0612 42.9383 17.9345 42.9383 15.0391C42.9383 12.4046 45.1794 10.0169 49.1039 10.0169C51.5517 10.0169 52.9591 11.2198 53.2144 11.4492H53.2548ZM53.2146 15.0391C53.2146 13.2959 51.516 12.102 49.4565 12.102C47.1842 12.102 45.84 13.3496 45.84 15.0391C45.84 17.0755 47.6376 17.9762 49.4565 17.9762C51.3608 17.9762 53.2146 16.9037 53.2146 15.0391Z" fill="#003DA5"/>
<path d="M2.76579 27.687C2.76579 28.0565 2.70016 28.7442 1.75646 28.7442C0.812766 28.7442 0.74135 28.0565 0.74135 27.687V25.6858H0V27.7076C0 29.1477 1.16358 29.3292 1.74504 29.3292C2.38602 29.3292 3.49588 29.1102 3.49588 27.7076V25.6858H2.76595L2.76579 27.687Z" fill="#003DA5"/>
<path d="M6.30736 26.5015C5.65222 26.5015 5.35481 26.7931 5.26377 26.8927V26.5375H4.58499V29.2778H5.29208V27.8923C5.29208 27.7076 5.32731 27.5544 5.3976 27.433C5.46789 27.3116 5.65592 27.0661 6.14184 27.0661C6.8084 27.0661 6.86614 27.5468 6.86614 27.7896V29.2778H7.57902V27.7074C7.57902 27.1399 7.29094 26.5015 6.30736 26.5015Z" fill="#003DA5"/>
<path d="M9.92851 26.5015C9.04803 26.5015 8.35461 27.0583 8.35461 27.9076C8.35461 28.7465 9.0424 29.3137 10.0369 29.3137C10.7786 29.3137 11.128 29.016 11.2687 28.8723L10.8809 28.4721C10.7744 28.5714 10.5241 28.7749 10.054 28.7749C9.37825 28.7749 9.11334 28.3813 9.0691 28.1128H11.4569C11.4606 28.0856 11.4683 27.9522 11.4683 27.9281C11.4683 27.025 10.7738 26.5016 9.92851 26.5016V26.5015ZM9.92851 27.0249C10.6575 27.0249 10.7735 27.5859 10.7871 27.6869H9.06299C9.08213 27.4693 9.28657 27.0249 9.92851 27.0249Z" fill="#003DA5"/>
<path d="M28.0289 26.5015C27.1485 26.5015 26.455 27.0583 26.455 27.9076C26.455 28.7465 27.1428 29.3137 28.1374 29.3137C28.879 29.3137 29.2284 29.016 29.3691 28.8723L28.9813 28.4721C28.8749 28.5714 28.6246 28.7749 28.1544 28.7749C27.4787 28.7749 27.2138 28.3813 27.1695 28.1128H29.5573C29.561 28.0856 29.5687 27.9522 29.5687 27.9281C29.5687 27.025 28.8742 26.5016 28.0289 26.5016V26.5015ZM28.0289 27.0249C28.7579 27.0249 28.8739 27.5859 28.8876 27.6869H27.1634C27.1826 27.4693 27.387 27.0249 28.0289 27.0249Z" fill="#003DA5"/>
<path d="M37.4099 26.5015C36.5294 26.5015 35.836 27.0583 35.836 27.9076C35.836 28.7465 36.5238 29.3137 37.5183 29.3137C38.26 29.3137 38.6094 29.016 38.7501 28.8723L38.3623 28.4721C38.2558 28.5714 38.0056 28.7749 37.5354 28.7749C36.8597 28.7749 36.5947 28.3813 36.5505 28.1128H38.9383C38.942 28.0856 38.9497 27.9522 38.9497 27.9281C38.9497 27.025 38.2552 26.5016 37.4099 26.5016V26.5015ZM37.4099 27.0249C38.1389 27.0249 38.2549 27.5859 38.2685 27.6869H36.5444C36.5635 27.4693 36.768 27.0249 37.4099 27.0249Z" fill="#003DA5"/>
<path d="M16.4409 25.3163C16.1622 25.3163 15.9848 25.5019 15.9848 25.6959C15.9848 25.9102 16.1678 26.0858 16.4409 26.0858C16.7281 26.0858 16.8973 25.8987 16.8973 25.6908C16.8973 25.483 16.7205 25.3163 16.4409 25.3163Z" fill="#003DA5"/>
<path d="M19.9653 25.3163C19.6865 25.3163 19.5091 25.5019 19.5091 25.6959C19.5091 25.9102 19.6922 26.0858 19.9653 26.0858C20.2524 26.0858 20.4216 25.8987 20.4216 25.6908C20.4216 25.483 20.2448 25.3163 19.9653 25.3163Z" fill="#003DA5"/>
<path d="M16.7945 26.5375H16.0874V29.2778H16.7945V26.5375Z" fill="#003DA5"/>
<path d="M15.1408 25.4342C14.2822 25.4342 14.0516 25.9599 14.0516 26.3886V26.5581H13.5497V27.0712H14.0516V29.2778H14.7587V27.0712H15.5798V26.5581H14.7414V26.3886C14.7414 26.245 14.7731 25.9524 15.192 25.9524C15.2642 25.9524 15.4289 25.9676 15.5798 26.0602L15.7794 25.5828C15.7032 25.5316 15.5113 25.4342 15.1408 25.4342Z" fill="#003DA5"/>
<path d="M18.5568 25.4701H17.8497V29.2778H18.5568V25.4701Z" fill="#003DA5"/>
<path d="M20.3188 26.5375H19.6118V29.2778H20.3188V26.5375Z" fill="#003DA5"/>
<path d="M22.5313 26.5015C21.8202 26.5015 21.4097 26.7325 21.2424 26.8454L21.5218 27.3124C21.6396 27.2269 21.964 27.0405 22.4401 27.0405C23.1485 27.0405 23.2099 27.4475 23.2099 27.6356V27.6766H22.4171C22.1092 27.6766 21.862 27.7126 21.6759 27.7844C21.4895 27.8562 21.1511 28.0305 21.1511 28.4926C21.1511 28.9398 21.5551 29.3137 22.286 29.3137C22.9518 29.3137 23.174 29.0386 23.2442 28.9423V29.2778H23.9172V27.6715C23.9172 26.5798 22.9707 26.5015 22.5313 26.5015ZM22.4345 28.8466C21.9868 28.8466 21.8528 28.6401 21.8528 28.4721C21.8528 28.3661 21.8956 28.2778 21.9812 28.2078C22.0668 28.1377 22.2292 28.1026 22.4687 28.1026H23.2101V28.4207C23.126 28.6145 22.8856 28.8465 22.4345 28.8465V28.8466Z" fill="#003DA5"/>
<path d="M25.6564 25.4701H24.9493V29.2778H25.6564V25.4701Z" fill="#003DA5"/>
<path d="M34.3189 26.8664C34.234 26.7799 33.9387 26.5015 33.3438 26.5015C32.4515 26.5015 31.8042 27.0633 31.8042 27.9076C31.8042 28.7824 32.4856 29.3137 33.3438 29.3137C33.9983 29.3137 34.2689 29.016 34.3591 28.9138V29.2778H35.0377V25.4701H34.3191V26.8664H34.3189ZM33.4294 28.7696C32.8941 28.7696 32.5225 28.3991 32.5225 27.9076C32.5225 27.38 32.9309 27.0506 33.4294 27.0506C33.9131 27.0506 34.3361 27.3622 34.3361 27.9076C34.3361 28.4094 33.9586 28.7696 33.4294 28.7696Z" fill="#003DA5"/>
<path d="M43.2553 25.6858H41.5045V29.2778H43.2553C44.532 29.2778 45.4281 28.5806 45.4281 27.4818C45.4281 26.4607 44.6153 25.6858 43.2553 25.6858ZM43.2096 28.7132H42.2458V26.2499H43.2096C44.1459 26.2499 44.6867 26.7772 44.6867 27.4816C44.6867 28.1564 44.1631 28.7132 43.2096 28.7132Z" fill="#003DA5"/>
<path d="M48.2281 25.6344C47.0412 25.6344 46.0724 26.3737 46.0724 27.4818C46.0724 28.6061 47.0583 29.3292 48.2281 29.3292C49.471 29.3292 50.3724 28.5551 50.3724 27.4818C50.3724 26.4708 49.5504 25.6344 48.2281 25.6344ZM48.2281 28.744C47.3989 28.744 46.8138 28.1923 46.8138 27.4816C46.8138 26.7976 47.3705 26.2191 48.2281 26.2191C48.9658 26.2191 49.6254 26.6698 49.6254 27.4816C49.6254 28.141 49.1078 28.744 48.2281 28.744Z" fill="#003DA5"/>
<path d="M66.0723 25.6344C64.8854 25.6344 63.9166 26.3737 63.9166 27.4818C63.9166 28.6061 64.9025 29.3292 66.0723 29.3292C67.3152 29.3292 68.2166 28.5551 68.2166 27.4818C68.2166 26.4708 67.3946 25.6344 66.0723 25.6344ZM66.0723 28.744C65.2431 28.744 64.658 28.1923 64.658 27.4816C64.658 26.7976 65.2147 26.2191 66.0723 26.2191C66.81 26.2191 67.4696 26.6698 67.4696 27.4816C67.4696 28.141 66.952 28.744 66.0723 28.744Z" fill="#003DA5"/>
<path d="M53.1896 26.2192C53.7742 26.2192 54.1078 26.4999 54.2561 26.6401L54.7352 26.2347C54.549 26.0363 54.0695 25.6344 53.1555 25.6344C51.9577 25.6344 51.0169 26.389 51.0169 27.4818C51.0169 28.5448 51.9122 29.3292 53.1499 29.3292C54.0809 29.3292 54.549 28.9222 54.7352 28.7236L54.2561 28.3182C54.1078 28.4618 53.7742 28.744 53.1896 28.744C52.3039 28.744 51.7583 28.1616 51.7583 27.4816C51.7583 26.8334 52.2699 26.2192 53.1896 26.2192Z" fill="#003DA5"/>
<path d="M56.7368 25.6858L54.9403 29.2778H55.6989L56.0957 28.4464H58.0923L58.4877 29.2778H59.2689L57.4668 25.6858H56.7368ZM56.3453 27.9231L57.0957 26.3511L57.8433 27.9231H56.3455H56.3453Z" fill="#003DA5"/>
<path d="M62.4709 25.837C62.2181 25.7361 61.9149 25.6856 61.5613 25.6856H59.9189V29.2776H60.6601V28.241H61.5613C61.9149 28.241 62.2181 28.1889 62.4709 28.0846C62.7236 27.9802 63.2607 27.7018 63.2607 26.9633C63.2607 26.2191 62.7236 25.9379 62.4709 25.837ZM61.527 27.6766H60.6601V26.2501H61.527C62.4373 26.2501 62.5137 26.7377 62.5137 26.9635C62.5137 27.1893 62.4373 27.6767 61.527 27.6767V27.6766Z" fill="#003DA5"/>
<path d="M71.9975 28.2616C71.9975 28.744 71.5999 29.329 70.3835 29.329C69.522 29.329 68.9806 29.0245 68.8096 28.8979L69.0662 28.3796C69.2259 28.4925 69.7001 28.7747 70.3835 28.7747C71.2479 28.7747 71.2676 28.3968 71.2676 28.3076C71.2676 28.1981 71.2238 28.1101 71.1363 28.0434C71.0488 27.9766 70.9359 27.9237 70.7971 27.8843C70.6583 27.8449 70.5043 27.809 70.3353 27.7765C70.1659 27.744 69.9962 27.7053 69.8276 27.6559C69.0226 27.4207 68.8952 27.0733 68.8952 26.7066C68.8952 26.219 69.2782 25.6341 70.5035 25.6341C70.7429 25.6341 71.319 25.6609 71.8323 25.9521L71.5984 26.4705C71.1289 26.2151 70.6726 26.1883 70.4977 26.1883C69.9623 26.1883 69.6309 26.3646 69.6309 26.6758C69.6309 26.6758 69.596 26.8766 69.8735 27.0126C70.251 27.1975 71.0252 27.2255 71.5299 27.5044C71.9331 27.7271 71.9978 28.026 71.9978 28.2613L71.9975 28.2616Z" fill="#003DA5"/>
<path d="M72.3055 26.2501H73.6285V29.2778H74.3698V26.2501H75.693V25.6858H72.3055V26.2501Z" fill="#003DA5"/>
<path d="M77.1356 28.7132V27.728H79.0632V27.179H77.1356V26.2501H79.3085V25.6858H76.3943V29.2778H79.3883V28.7132H77.1356Z" fill="#003DA5"/>
</svg>
