<?xml version="1.0" encoding="UTF-8"?>
<svg width="100px" height="80px" viewBox="0 0 230 80" version="1.1" xmlns="http://www.w3.org/2000/svg" xmlns:xlink="http://www.w3.org/1999/xlink">
    <title>Snitem-Application-Osiris-Logo-baseline</title>
    <g id="Snitem-Application-Osiris-Logo-baseline" stroke="none" stroke-width="1" fill="none" fill-rule="evenodd">
        <g id="_logo/baseline" transform="translate(-0, 0)">
            <g id="Group-2" transform="translate(21.1607, 88.8435)" fill-rule="nonzero">
                <g id="Outil-de-Simulation">
                    <path d="M8.063,4.18 C8.063,4.763 7.96583333,5.30291667 7.7715,5.79975 C7.57716667,6.29658333 7.304,6.7265 6.952,7.0895 C6.6,7.4525 6.1765,7.73575 5.6815,7.93925 C5.1865,8.14275 4.63833333,8.2445 4.037,8.2445 C3.43566667,8.2445 2.88658333,8.14275 2.38975,7.93925 C1.89291667,7.73575 1.46758333,7.4525 1.11375,7.0895 C0.759916667,6.7265 0.485833333,6.29658333 0.2915,5.79975 C0.0971666667,5.30291667 0,4.763 0,4.18 C0,3.597 0.0971666667,3.05708333 0.2915,2.56025 C0.485833333,2.06341667 0.759916667,1.6335 1.11375,1.2705 C1.46758333,0.9075 1.89291667,0.62425 2.38975,0.42075 C2.88658333,0.21725 3.43566667,0.1155 4.037,0.1155 C4.63833333,0.1155 5.1865,0.218166667 5.6815,0.4235 C6.1765,0.628833333 6.6,0.912083333 6.952,1.27325 C7.304,1.63441667 7.57716667,2.06341667 7.7715,2.56025 C7.96583333,3.05708333 8.063,3.597 8.063,4.18 Z M6.545,4.18 C6.545,3.74366667 6.48725,3.35225 6.37175,3.00575 C6.25625,2.65925 6.09033333,2.365 5.874,2.123 C5.65766667,1.881 5.39458333,1.69583333 5.08475,1.5675 C4.77491667,1.43916667 4.42566667,1.375 4.037,1.375 C3.64833333,1.375 3.29816667,1.43916667 2.9865,1.5675 C2.67483333,1.69583333 2.40991667,1.881 2.19175,2.123 C1.97358333,2.365 1.80583333,2.65925 1.6885,3.00575 C1.57116667,3.35225 1.5125,3.74366667 1.5125,4.18 C1.5125,4.61633333 1.57116667,5.00775 1.6885,5.35425 C1.80583333,5.70075 1.97358333,5.99408333 2.19175,6.23425 C2.40991667,6.47441667 2.67483333,6.65866667 2.9865,6.787 C3.29816667,6.91533333 3.64833333,6.9795 4.037,6.9795 C4.42566667,6.9795 4.77491667,6.91533333 5.08475,6.787 C5.39458333,6.65866667 5.65766667,6.47441667 5.874,6.23425 C6.09033333,5.99408333 6.25625,5.70075 6.37175,5.35425 C6.48725,5.00775 6.545,4.61633333 6.545,4.18 Z" id="Shape" fill="#3965AE"></path>
                    <path d="M10.076,2.585 L10.076,6.138 C10.076,6.55966667 10.1731667,6.886 10.3675,7.117 C10.5618333,7.348 10.8551667,7.4635 11.2475,7.4635 C11.5335,7.4635 11.803,7.39566667 12.056,7.26 C12.309,7.12433333 12.5418333,6.9355 12.7545,6.6935 L12.7545,2.585 L13.7335,2.585 L13.7335,8.1565 L13.1505,8.1565 C13.0111667,8.1565 12.9231667,8.08866667 12.8865,7.953 L12.8095,7.3535 C12.5675,7.62116667 12.2961667,7.83658333 11.9955,7.99975 C11.6948333,8.16291667 11.3501667,8.2445 10.9615,8.2445 C10.6571667,8.2445 10.3885833,8.19408333 10.15575,8.09325 C9.92291667,7.99241667 9.72766667,7.85033333 9.57,7.667 C9.41233333,7.48366667 9.29408333,7.26183333 9.21525,7.0015 C9.13641667,6.74116667 9.097,6.45333333 9.097,6.138 L9.097,2.585 L10.076,2.585 Z" id="Path" fill="#21252B"></path>
                    <path d="M17.0335,8.2445 C16.5935,8.2445 16.25525,8.12166667 16.01875,7.876 C15.78225,7.63033333 15.664,7.2765 15.664,6.8145 L15.664,3.4045 L14.993,3.4045 C14.9343333,3.4045 14.8848333,3.38708333 14.8445,3.35225 C14.8041667,3.31741667 14.784,3.26333333 14.784,3.19 L14.784,2.7995 L15.697,2.684 L15.9225,0.9625 C15.9298333,0.9075 15.9536667,0.862583333 15.994,0.82775 C16.0343333,0.792916667 16.0856667,0.7755 16.148,0.7755 L16.643,0.7755 L16.643,2.695 L18.238,2.695 L18.238,3.4045 L16.643,3.4045 L16.643,6.7485 C16.643,6.98316667 16.6998333,7.15733333 16.8135,7.271 C16.9271667,7.38466667 17.0738333,7.4415 17.2535,7.4415 C17.3561667,7.4415 17.4450833,7.42775 17.52025,7.40025 C17.5954167,7.37275 17.6605,7.3425 17.7155,7.3095 C17.7705,7.2765 17.81725,7.24625 17.85575,7.21875 C17.89425,7.19125 17.9281667,7.1775 17.9575,7.1775 C18.0088333,7.1775 18.0546667,7.20866667 18.095,7.271 L18.381,7.7385 C18.2123333,7.89616667 18.0088333,8.01991667 17.7705,8.10975 C17.5321667,8.19958333 17.2865,8.2445 17.0335,8.2445 Z" id="Path" fill="#21252B"></path>
                    <path d="M20.537,2.585 L20.537,8.1565 L19.558,8.1565 L19.558,2.585 L20.537,2.585 Z M20.757,0.836 C20.757,0.931333333 20.73775,1.02025 20.69925,1.10275 C20.66075,1.18525 20.6094167,1.25858333 20.54525,1.32275 C20.4810833,1.38691667 20.4068333,1.43733333 20.3225,1.474 C20.2381667,1.51066667 20.1483333,1.529 20.053,1.529 C19.9576667,1.529 19.86875,1.51066667 19.78625,1.474 C19.70375,1.43733333 19.6304167,1.38691667 19.56625,1.32275 C19.5020833,1.25858333 19.4516667,1.18525 19.415,1.10275 C19.3783333,1.02025 19.36,0.931333333 19.36,0.836 C19.36,0.740666667 19.3783333,0.649916667 19.415,0.56375 C19.4516667,0.477583333 19.5020833,0.402416667 19.56625,0.33825 C19.6304167,0.274083333 19.70375,0.223666667 19.78625,0.187 C19.86875,0.150333333 19.9576667,0.132 20.053,0.132 C20.1483333,0.132 20.2381667,0.150333333 20.3225,0.187 C20.4068333,0.223666667 20.4810833,0.274083333 20.54525,0.33825 C20.6094167,0.402416667 20.66075,0.477583333 20.69925,0.56375 C20.73775,0.649916667 20.757,0.740666667 20.757,0.836 Z" id="Shape" fill="#21252B"></path>
                    <polygon id="Path" fill="#21252B" points="23.353 0.055 23.353 8.1565 22.374 8.1565 22.374 0.055"></polygon>
                    <path d="M31.1245,8.1565 C30.9851667,8.1565 30.8971667,8.08866667 30.8605,7.953 L30.7725,7.2765 C30.5341667,7.56616667 30.2619167,7.79808333 29.95575,7.97225 C29.6495833,8.14641667 29.2985,8.2335 28.9025,8.2335 C28.5835,8.2335 28.2938333,8.17208333 28.0335,8.04925 C27.7731667,7.92641667 27.5513333,7.74583333 27.368,7.5075 C27.1846667,7.26916667 27.0435,6.97216667 26.9445,6.6165 C26.8455,6.26083333 26.796,5.852 26.796,5.39 C26.796,4.97933333 26.851,4.59708333 26.961,4.24325 C27.071,3.88941667 27.2295833,3.58233333 27.43675,3.322 C27.6439167,3.06166667 27.896,2.85725 28.193,2.70875 C28.49,2.56025 28.8273333,2.486 29.205,2.486 C29.546,2.486 29.8375,2.54375 30.0795,2.65925 C30.3215,2.77475 30.5378333,2.937 30.7285,3.146 L30.7285,0.055 L31.7075,0.055 L31.7075,8.1565 L31.1245,8.1565 Z M29.227,7.4415 C29.546,7.4415 29.8255833,7.36816667 30.06575,7.2215 C30.3059167,7.07483333 30.5268333,6.86766667 30.7285,6.6 L30.7285,3.905 C30.5488333,3.663 30.35175,3.49341667 30.13725,3.39625 C29.92275,3.29908333 29.6853333,3.2505 29.425,3.2505 C28.9043333,3.2505 28.5046667,3.43566667 28.226,3.806 C27.9473333,4.17633333 27.808,4.70433333 27.808,5.39 C27.808,5.753 27.8391667,6.06375 27.9015,6.32225 C27.9638333,6.58075 28.0555,6.79341667 28.1765,6.96025 C28.2975,7.12708333 28.446,7.249 28.622,7.326 C28.798,7.403 28.9996667,7.4415 29.227,7.4415 Z" id="Shape" fill="#21252B"></path>
                    <path d="M35.5575,2.497 C35.8911667,2.497 36.1991667,2.55291667 36.4815,2.66475 C36.7638333,2.77658333 37.0076667,2.93791667 37.213,3.14875 C37.4183333,3.35958333 37.57875,3.61991667 37.69425,3.92975 C37.80975,4.23958333 37.8675,4.5925 37.8675,4.9885 C37.8675,5.1425 37.851,5.24516667 37.818,5.2965 C37.785,5.34783333 37.7226667,5.3735 37.631,5.3735 L33.924,5.3735 C33.9313333,5.7255 33.979,6.03166667 34.067,6.292 C34.155,6.55233333 34.276,6.76958333 34.43,6.94375 C34.584,7.11791667 34.7673333,7.24808333 34.98,7.33425 C35.1926667,7.42041667 35.431,7.4635 35.695,7.4635 C35.9406667,7.4635 36.1524167,7.43508333 36.33025,7.37825 C36.5080833,7.32141667 36.6611667,7.26 36.7895,7.194 C36.9178333,7.128 37.0250833,7.06658333 37.11125,7.00975 C37.1974167,6.95291667 37.2716667,6.9245 37.334,6.9245 C37.4146667,6.9245 37.477,6.95566667 37.521,7.018 L37.796,7.3755 C37.675,7.52216667 37.5301667,7.64958333 37.3615,7.75775 C37.1928333,7.86591667 37.01225,7.95483333 36.81975,8.0245 C36.62725,8.09416667 36.4283333,8.14641667 36.223,8.18125 C36.0176667,8.21608333 35.8141667,8.2335 35.6125,8.2335 C35.2275,8.2335 34.87275,8.16841667 34.54825,8.03825 C34.22375,7.90808333 33.94325,7.71741667 33.70675,7.46625 C33.47025,7.21508333 33.286,6.90433333 33.154,6.534 C33.022,6.16366667 32.956,5.73833333 32.956,5.258 C32.956,4.86933333 33.0155833,4.50633333 33.13475,4.169 C33.2539167,3.83166667 33.4253333,3.53925 33.649,3.29175 C33.8726667,3.04425 34.1458333,2.84991667 34.4685,2.70875 C34.7911667,2.56758333 35.1541667,2.497 35.5575,2.497 Z M35.5795,3.2175 C35.1065,3.2175 34.7343333,3.35408333 34.463,3.62725 C34.1916667,3.90041667 34.023,4.279 33.957,4.763 L36.9875,4.763 C36.9875,4.53566667 36.9563333,4.32758333 36.894,4.13875 C36.8316667,3.94991667 36.74,3.78675 36.619,3.64925 C36.498,3.51175 36.3504167,3.40541667 36.17625,3.33025 C36.0020833,3.25508333 35.8031667,3.2175 35.5795,3.2175 Z" id="Shape" fill="#21252B"></path>
                    <path d="M45.5015,1.65 C45.4611667,1.73066667 45.4144167,1.7875 45.36125,1.8205 C45.3080833,1.8535 45.2448333,1.87 45.1715,1.87 C45.0981667,1.87 45.0156667,1.84158333 44.924,1.78475 C44.8323333,1.72791667 44.7241667,1.66466667 44.5995,1.595 C44.4748333,1.52533333 44.3290833,1.46208333 44.16225,1.40525 C43.9954167,1.34841667 43.7983333,1.32 43.571,1.32 C43.3656667,1.32 43.1869167,1.34475 43.03475,1.39425 C42.8825833,1.44375 42.75425,1.5125 42.64975,1.6005 C42.54525,1.6885 42.4673333,1.79391667 42.416,1.91675 C42.3646667,2.03958333 42.339,2.17433333 42.339,2.321 C42.339,2.508 42.39125,2.66383333 42.49575,2.7885 C42.60025,2.91316667 42.7386667,3.0195 42.911,3.1075 C43.0833333,3.1955 43.2795,3.27433333 43.4995,3.344 C43.7195,3.41366667 43.9440833,3.48791667 44.17325,3.56675 C44.4024167,3.64558333 44.627,3.73725 44.847,3.84175 C45.067,3.94625 45.2631667,4.07825 45.4355,4.23775 C45.6078333,4.39725 45.74625,4.5925 45.85075,4.8235 C45.95525,5.0545 46.0075,5.335 46.0075,5.665 C46.0075,6.02433333 45.9460833,6.36075 45.82325,6.67425 C45.7004167,6.98775 45.52075,7.26091667 45.28425,7.49375 C45.04775,7.72658333 44.759,7.90991667 44.418,8.04375 C44.077,8.17758333 43.6865,8.2445 43.2465,8.2445 C42.9935,8.2445 42.7441667,8.21975 42.4985,8.17025 C42.2528333,8.12075 42.01725,8.05016667 41.79175,7.9585 C41.56625,7.86683333 41.3554167,7.75683333 41.15925,7.6285 C40.9630833,7.50016667 40.788,7.35716667 40.634,7.1995 L41.063,6.49 C41.1033333,6.43866667 41.1519167,6.39558333 41.20875,6.36075 C41.2655833,6.32591667 41.3288333,6.3085 41.3985,6.3085 C41.4901667,6.3085 41.5891667,6.34608333 41.6955,6.42125 C41.8018333,6.49641667 41.9274167,6.57983333 42.07225,6.6715 C42.2170833,6.76316667 42.3875833,6.84658333 42.58375,6.92175 C42.7799167,6.99691667 43.0155,7.0345 43.2905,7.0345 C43.7121667,7.0345 44.0385,6.93458333 44.2695,6.73475 C44.5005,6.53491667 44.616,6.248 44.616,5.874 C44.616,5.665 44.56375,5.4945 44.45925,5.3625 C44.35475,5.2305 44.2163333,5.11958333 44.044,5.02975 C43.8716667,4.93991667 43.6755,4.86383333 43.4555,4.8015 C43.2355,4.73916667 43.0118333,4.67133333 42.7845,4.598 C42.5571667,4.52466667 42.3335,4.43666667 42.1135,4.334 C41.8935,4.23133333 41.6973333,4.0975 41.525,3.9325 C41.3526667,3.7675 41.21425,3.56125 41.10975,3.31375 C41.00525,3.06625 40.953,2.761 40.953,2.398 C40.953,2.10833333 41.01075,1.826 41.12625,1.551 C41.24175,1.276 41.4104167,1.03216667 41.63225,0.8195 C41.8540833,0.606833333 42.1263333,0.436333333 42.449,0.308 C42.7716667,0.179666667 43.1401667,0.1155 43.5545,0.1155 C44.0238333,0.1155 44.4565,0.188833333 44.8525,0.3355 C45.2485,0.482166667 45.5858333,0.6875 45.8645,0.9515 L45.5015,1.65 Z" id="Path" fill="#3965AE"></path>
                    <path d="M48.51,2.5135 L48.51,8.1565 L47.1515,8.1565 L47.1515,2.5135 L48.51,2.5135 Z M48.7135,0.869 C48.7135,0.986333333 48.6896667,1.09633333 48.642,1.199 C48.5943333,1.30166667 48.5310833,1.3915 48.45225,1.4685 C48.3734167,1.5455 48.2808333,1.60691667 48.1745,1.65275 C48.0681667,1.69858333 47.9545,1.7215 47.8335,1.7215 C47.7161667,1.7215 47.60525,1.69858333 47.50075,1.65275 C47.39625,1.60691667 47.3055,1.5455 47.2285,1.4685 C47.1515,1.3915 47.0900833,1.30166667 47.04425,1.199 C46.9984167,1.09633333 46.9755,0.986333333 46.9755,0.869 C46.9755,0.748 46.9984167,0.634333333 47.04425,0.528 C47.0900833,0.421666667 47.1515,0.33 47.2285,0.253 C47.3055,0.176 47.39625,0.114583333 47.50075,0.06875 C47.60525,0.0229166667 47.7161667,0 47.8335,0 C47.9545,0 48.0681667,0.0229166667 48.1745,0.06875 C48.2808333,0.114583333 48.3734167,0.176 48.45225,0.253 C48.5310833,0.33 48.5943333,0.421666667 48.642,0.528 C48.6896667,0.634333333 48.7135,0.748 48.7135,0.869 Z" id="Shape" fill="#3965AE"></path>
                    <path d="M50.1215,8.1565 L50.1215,2.585 L50.7045,2.585 C50.8438333,2.585 50.9318333,2.65283333 50.9685,2.7885 L51.04,3.3605 C51.2453333,3.1075 51.4754167,2.90033333 51.73025,2.739 C51.9850833,2.57766667 52.2811667,2.497 52.6185,2.497 C52.9961667,2.497 53.3014167,2.6015 53.53425,2.8105 C53.7670833,3.0195 53.9348333,3.30183333 54.0375,3.6575 C54.1145,3.45583333 54.21625,3.28166667 54.34275,3.135 C54.46925,2.98833333 54.6113333,2.86733333 54.769,2.772 C54.9266667,2.67666667 55.0944167,2.607 55.27225,2.563 C55.4500833,2.519 55.6306667,2.497 55.814,2.497 C56.1073333,2.497 56.3685833,2.54375 56.59775,2.63725 C56.8269167,2.73075 57.02125,2.86733333 57.18075,3.047 C57.34025,3.22666667 57.4621667,3.44758333 57.5465,3.70975 C57.6308333,3.97191667 57.673,4.27166667 57.673,4.609 L57.673,8.1565 L56.694,8.1565 L56.694,4.609 C56.694,4.17266667 56.5986667,3.84175 56.408,3.61625 C56.2173333,3.39075 55.9405,3.278 55.5775,3.278 C55.4161667,3.278 55.2630833,3.30641667 55.11825,3.36325 C54.9734167,3.42008333 54.846,3.5035 54.736,3.6135 C54.626,3.7235 54.5389167,3.86191667 54.47475,4.02875 C54.4105833,4.19558333 54.3785,4.389 54.3785,4.609 L54.3785,8.1565 L53.3995,8.1565 L53.3995,4.609 C53.3995,4.16166667 53.3096667,3.828 53.13,3.608 C52.9503333,3.388 52.6881667,3.278 52.3435,3.278 C52.1015,3.278 51.8769167,3.34308333 51.66975,3.47325 C51.4625833,3.60341667 51.2728333,3.78033333 51.1005,4.004 L51.1005,8.1565 L50.1215,8.1565 Z" id="Path" fill="#21252B"></path>
                    <path d="M59.9995,2.585 L59.9995,6.138 C59.9995,6.55966667 60.0966667,6.886 60.291,7.117 C60.4853333,7.348 60.7786667,7.4635 61.171,7.4635 C61.457,7.4635 61.7265,7.39566667 61.9795,7.26 C62.2325,7.12433333 62.4653333,6.9355 62.678,6.6935 L62.678,2.585 L63.657,2.585 L63.657,8.1565 L63.074,8.1565 C62.9346667,8.1565 62.8466667,8.08866667 62.81,7.953 L62.733,7.3535 C62.491,7.62116667 62.2196667,7.83658333 61.919,7.99975 C61.6183333,8.16291667 61.2736667,8.2445 60.885,8.2445 C60.5806667,8.2445 60.3120833,8.19408333 60.07925,8.09325 C59.8464167,7.99241667 59.6511667,7.85033333 59.4935,7.667 C59.3358333,7.48366667 59.2175833,7.26183333 59.13875,7.0015 C59.0599167,6.74116667 59.0205,6.45333333 59.0205,6.138 L59.0205,2.585 L59.9995,2.585 Z" id="Path" fill="#21252B"></path>
                    <polygon id="Path" fill="#21252B" points="66.3575 0.055 66.3575 8.1565 65.3785 8.1565 65.3785 0.055"></polygon>
                    <path d="M72.1765,8.1565 L71.742,8.1565 C71.6466667,8.1565 71.5696667,8.14183333 71.511,8.1125 C71.4523333,8.08316667 71.4138333,8.02083333 71.3955,7.9255 L71.2855,7.4085 C71.1388333,7.5405 70.9958333,7.65875 70.8565,7.76325 C70.7171667,7.86775 70.5705,7.95575 70.4165,8.02725 C70.2625,8.09875 70.0984167,8.15283333 69.92425,8.1895 C69.7500833,8.22616667 69.5566667,8.2445 69.344,8.2445 C69.1276667,8.2445 68.9250833,8.21425 68.73625,8.15375 C68.5474167,8.09325 68.3833333,8.0025 68.244,7.8815 C68.1046667,7.7605 67.99375,7.60741667 67.91125,7.42225 C67.82875,7.23708333 67.7875,7.018 67.7875,6.765 C67.7875,6.545 67.848,6.33325 67.969,6.12975 C68.09,5.92625 68.28525,5.74566667 68.55475,5.588 C68.82425,5.43033333 69.1771667,5.30108333 69.6135,5.20025 C70.0498333,5.09941667 70.5833333,5.04166667 71.214,5.027 L71.214,4.5925 C71.214,4.15983333 71.1214167,3.83258333 70.93625,3.61075 C70.7510833,3.38891667 70.477,3.278 70.114,3.278 C69.8756667,3.278 69.6749167,3.30825 69.51175,3.36875 C69.3485833,3.42925 69.2074167,3.49708333 69.08825,3.57225 C68.9690833,3.64741667 68.8664167,3.71525 68.78025,3.77575 C68.6940833,3.83625 68.6088333,3.8665 68.5245,3.8665 C68.4585,3.8665 68.40075,3.84908333 68.35125,3.81425 C68.30175,3.77941667 68.2623333,3.73633333 68.233,3.685 L68.057,3.3715 C68.365,3.0745 68.6968333,2.85266667 69.0525,2.706 C69.4081667,2.55933333 69.8023333,2.486 70.235,2.486 C70.5466667,2.486 70.8235,2.53733333 71.0655,2.64 C71.3075,2.74266667 71.511,2.88566667 71.676,3.069 C71.841,3.25233333 71.9656667,3.47416667 72.05,3.7345 C72.1343333,3.99483333 72.1765,4.28083333 72.1765,4.5925 L72.1765,8.1565 Z M69.6355,7.557 C69.8078333,7.557 69.9655,7.53958333 70.1085,7.50475 C70.2515,7.46991667 70.38625,7.42041667 70.51275,7.35625 C70.63925,7.29208333 70.76025,7.21416667 70.87575,7.1225 C70.99125,7.03083333 71.104,6.92633333 71.214,6.809 L71.214,5.6485 C70.763,5.66316667 70.3798333,5.69891667 70.0645,5.75575 C69.7491667,5.81258333 69.4925,5.88683333 69.2945,5.9785 C69.0965,6.07016667 68.9525833,6.17833333 68.86275,6.303 C68.7729167,6.42766667 68.728,6.567 68.728,6.721 C68.728,6.86766667 68.7518333,6.99416667 68.7995,7.1005 C68.8471667,7.20683333 68.9113333,7.29391667 68.992,7.36175 C69.0726667,7.42958333 69.168,7.47908333 69.278,7.51025 C69.388,7.54141667 69.5071667,7.557 69.6355,7.557 Z" id="Shape" fill="#21252B"></path>
                    <path d="M75.35,8.2445 C74.91,8.2445 74.57175,8.12166667 74.33525,7.876 C74.09875,7.63033333 73.9805,7.2765 73.9805,6.8145 L73.9805,3.4045 L73.3095,3.4045 C73.2508333,3.4045 73.2013333,3.38708333 73.161,3.35225 C73.1206667,3.31741667 73.1005,3.26333333 73.1005,3.19 L73.1005,2.7995 L74.0135,2.684 L74.239,0.9625 C74.2463333,0.9075 74.2701667,0.862583333 74.3105,0.82775 C74.3508333,0.792916667 74.4021667,0.7755 74.4645,0.7755 L74.9595,0.7755 L74.9595,2.695 L76.5545,2.695 L76.5545,3.4045 L74.9595,3.4045 L74.9595,6.7485 C74.9595,6.98316667 75.0163333,7.15733333 75.13,7.271 C75.2436667,7.38466667 75.3903333,7.4415 75.57,7.4415 C75.6726667,7.4415 75.7615833,7.42775 75.83675,7.40025 C75.9119167,7.37275 75.977,7.3425 76.032,7.3095 C76.087,7.2765 76.13375,7.24625 76.17225,7.21875 C76.21075,7.19125 76.2446667,7.1775 76.274,7.1775 C76.3253333,7.1775 76.3711667,7.20866667 76.4115,7.271 L76.6975,7.7385 C76.5288333,7.89616667 76.3253333,8.01991667 76.087,8.10975 C75.8486667,8.19958333 75.603,8.2445 75.35,8.2445 Z" id="Path" fill="#21252B"></path>
                    <path d="M78.8535,2.585 L78.8535,8.1565 L77.8745,8.1565 L77.8745,2.585 L78.8535,2.585 Z M79.0735,0.836 C79.0735,0.931333333 79.05425,1.02025 79.01575,1.10275 C78.97725,1.18525 78.9259167,1.25858333 78.86175,1.32275 C78.7975833,1.38691667 78.7233333,1.43733333 78.639,1.474 C78.5546667,1.51066667 78.4648333,1.529 78.3695,1.529 C78.2741667,1.529 78.18525,1.51066667 78.10275,1.474 C78.02025,1.43733333 77.9469167,1.38691667 77.88275,1.32275 C77.8185833,1.25858333 77.7681667,1.18525 77.7315,1.10275 C77.6948333,1.02025 77.6765,0.931333333 77.6765,0.836 C77.6765,0.740666667 77.6948333,0.649916667 77.7315,0.56375 C77.7681667,0.477583333 77.8185833,0.402416667 77.88275,0.33825 C77.9469167,0.274083333 78.02025,0.223666667 78.10275,0.187 C78.18525,0.150333333 78.2741667,0.132 78.3695,0.132 C78.4648333,0.132 78.5546667,0.150333333 78.639,0.187 C78.7233333,0.223666667 78.7975833,0.274083333 78.86175,0.33825 C78.9259167,0.402416667 78.97725,0.477583333 79.01575,0.56375 C79.05425,0.649916667 79.0735,0.740666667 79.0735,0.836 Z" id="Shape" fill="#21252B"></path>
                    <path d="M82.8355,2.497 C83.2425,2.497 83.6100833,2.56483333 83.93825,2.7005 C84.2664167,2.83616667 84.5450833,3.02866667 84.77425,3.278 C85.0034167,3.52733333 85.1794167,3.82891667 85.30225,4.18275 C85.4250833,4.53658333 85.4865,4.93166667 85.4865,5.368 C85.4865,5.808 85.4250833,6.204 85.30225,6.556 C85.1794167,6.908 85.0034167,7.20866667 84.77425,7.458 C84.5450833,7.70733333 84.2664167,7.89891667 83.93825,8.03275 C83.6100833,8.16658333 83.2425,8.2335 82.8355,8.2335 C82.4285,8.2335 82.0609167,8.16658333 81.73275,8.03275 C81.4045833,7.89891667 81.125,7.70733333 80.894,7.458 C80.663,7.20866667 80.4851667,6.908 80.3605,6.556 C80.2358333,6.204 80.1735,5.808 80.1735,5.368 C80.1735,4.93166667 80.2358333,4.53658333 80.3605,4.18275 C80.4851667,3.82891667 80.663,3.52733333 80.894,3.278 C81.125,3.02866667 81.4045833,2.83616667 81.73275,2.7005 C82.0609167,2.56483333 82.4285,2.497 82.8355,2.497 Z M82.8355,7.469 C83.3855,7.469 83.7961667,7.28475 84.0675,6.91625 C84.3388333,6.54775 84.4745,6.0335 84.4745,5.3735 C84.4745,4.70983333 84.3388333,4.19283333 84.0675,3.8225 C83.7961667,3.45216667 83.3855,3.267 82.8355,3.267 C82.5568333,3.267 82.3148333,3.31466667 82.1095,3.41 C81.9041667,3.50533333 81.73275,3.64283333 81.59525,3.8225 C81.45775,4.00216667 81.3550833,4.22308333 81.28725,4.48525 C81.2194167,4.74741667 81.1855,5.0435 81.1855,5.3735 C81.1855,5.7035 81.2194167,5.99866667 81.28725,6.259 C81.3550833,6.51933333 81.45775,6.73841667 81.59525,6.91625 C81.73275,7.09408333 81.9041667,7.23066667 82.1095,7.326 C82.3148333,7.42133333 82.5568333,7.469 82.8355,7.469 Z" id="Shape" fill="#21252B"></path>
                    <path d="M86.6965,8.1565 L86.6965,2.585 L87.2795,2.585 C87.4188333,2.585 87.5068333,2.65283333 87.5435,2.7885 L87.6205,3.3935 C87.8625,3.12583333 88.1329167,2.9095 88.43175,2.7445 C88.7305833,2.5795 89.0761667,2.497 89.4685,2.497 C89.7728333,2.497 90.0414167,2.54741667 90.27425,2.64825 C90.5070833,2.74908333 90.7014167,2.89208333 90.85725,3.07725 C91.0130833,3.26241667 91.1313333,3.48516667 91.212,3.7455 C91.2926667,4.00583333 91.333,4.29366667 91.333,4.609 L91.333,8.1565 L90.354,8.1565 L90.354,4.609 C90.354,4.18733333 90.25775,3.86008333 90.06525,3.62725 C89.87275,3.39441667 89.5785,3.278 89.1825,3.278 C88.8928333,3.278 88.6224167,3.34766667 88.37125,3.487 C88.1200833,3.62633333 87.8881667,3.81516667 87.6755,4.0535 L87.6755,8.1565 L86.6965,8.1565 Z" id="Path" fill="#21252B"></path>
                    <path d="M98.857,8.1565 C98.7176667,8.1565 98.6296667,8.08866667 98.593,7.953 L98.505,7.2765 C98.2666667,7.56616667 97.9944167,7.79808333 97.68825,7.97225 C97.3820833,8.14641667 97.031,8.2335 96.635,8.2335 C96.316,8.2335 96.0263333,8.17208333 95.766,8.04925 C95.5056667,7.92641667 95.2838333,7.74583333 95.1005,7.5075 C94.9171667,7.26916667 94.776,6.97216667 94.677,6.6165 C94.578,6.26083333 94.5285,5.852 94.5285,5.39 C94.5285,4.97933333 94.5835,4.59708333 94.6935,4.24325 C94.8035,3.88941667 94.9620833,3.58233333 95.16925,3.322 C95.3764167,3.06166667 95.6285,2.85725 95.9255,2.70875 C96.2225,2.56025 96.5598333,2.486 96.9375,2.486 C97.2785,2.486 97.57,2.54375 97.812,2.65925 C98.054,2.77475 98.2703333,2.937 98.461,3.146 L98.461,0.055 L99.44,0.055 L99.44,8.1565 L98.857,8.1565 Z M96.9595,7.4415 C97.2785,7.4415 97.5580833,7.36816667 97.79825,7.2215 C98.0384167,7.07483333 98.2593333,6.86766667 98.461,6.6 L98.461,3.905 C98.2813333,3.663 98.08425,3.49341667 97.86975,3.39625 C97.65525,3.29908333 97.4178333,3.2505 97.1575,3.2505 C96.6368333,3.2505 96.2371667,3.43566667 95.9585,3.806 C95.6798333,4.17633333 95.5405,4.70433333 95.5405,5.39 C95.5405,5.753 95.5716667,6.06375 95.634,6.32225 C95.6963333,6.58075 95.788,6.79341667 95.909,6.96025 C96.03,7.12708333 96.1785,7.249 96.3545,7.326 C96.5305,7.403 96.7321667,7.4415 96.9595,7.4415 Z" id="Shape" fill="#21252B"></path>
                    <path d="M103.29,2.497 C103.623667,2.497 103.931667,2.55291667 104.214,2.66475 C104.496333,2.77658333 104.740167,2.93791667 104.9455,3.14875 C105.150833,3.35958333 105.31125,3.61991667 105.42675,3.92975 C105.54225,4.23958333 105.6,4.5925 105.6,4.9885 C105.6,5.1425 105.5835,5.24516667 105.5505,5.2965 C105.5175,5.34783333 105.455167,5.3735 105.3635,5.3735 L101.6565,5.3735 C101.663833,5.7255 101.7115,6.03166667 101.7995,6.292 C101.8875,6.55233333 102.0085,6.76958333 102.1625,6.94375 C102.3165,7.11791667 102.499833,7.24808333 102.7125,7.33425 C102.925167,7.42041667 103.1635,7.4635 103.4275,7.4635 C103.673167,7.4635 103.884917,7.43508333 104.06275,7.37825 C104.240583,7.32141667 104.393667,7.26 104.522,7.194 C104.650333,7.128 104.757583,7.06658333 104.84375,7.00975 C104.929917,6.95291667 105.004167,6.9245 105.0665,6.9245 C105.147167,6.9245 105.2095,6.95566667 105.2535,7.018 L105.5285,7.3755 C105.4075,7.52216667 105.262667,7.64958333 105.094,7.75775 C104.925333,7.86591667 104.74475,7.95483333 104.55225,8.0245 C104.35975,8.09416667 104.160833,8.14641667 103.9555,8.18125 C103.750167,8.21608333 103.546667,8.2335 103.345,8.2335 C102.96,8.2335 102.60525,8.16841667 102.28075,8.03825 C101.95625,7.90808333 101.67575,7.71741667 101.43925,7.46625 C101.20275,7.21508333 101.0185,6.90433333 100.8865,6.534 C100.7545,6.16366667 100.6885,5.73833333 100.6885,5.258 C100.6885,4.86933333 100.748083,4.50633333 100.86725,4.169 C100.986417,3.83166667 101.157833,3.53925 101.3815,3.29175 C101.605167,3.04425 101.878333,2.84991667 102.201,2.70875 C102.523667,2.56758333 102.886667,2.497 103.29,2.497 Z M103.312,3.2175 C102.839,3.2175 102.466833,3.35408333 102.1955,3.62725 C101.924167,3.90041667 101.7555,4.279 101.6895,4.763 L104.72,4.763 C104.72,4.53566667 104.688833,4.32758333 104.6265,4.13875 C104.564167,3.94991667 104.4725,3.78675 104.3515,3.64925 C104.2305,3.51175 104.082917,3.40541667 103.90875,3.33025 C103.734583,3.25508333 103.535667,3.2175 103.312,3.2175 Z" id="Shape" fill="#21252B"></path>
                    <polygon id="Path" fill="#21252B" points="110.0605 0.055 110.0605 8.1565 109.0815 8.1565 109.0815 0.055"></polygon>
                    <path d="M115.8795,8.1565 L115.445,8.1565 C115.349667,8.1565 115.272667,8.14183333 115.214,8.1125 C115.155333,8.08316667 115.116833,8.02083333 115.0985,7.9255 L114.9885,7.4085 C114.841833,7.5405 114.698833,7.65875 114.5595,7.76325 C114.420167,7.86775 114.2735,7.95575 114.1195,8.02725 C113.9655,8.09875 113.801417,8.15283333 113.62725,8.1895 C113.453083,8.22616667 113.259667,8.2445 113.047,8.2445 C112.830667,8.2445 112.628083,8.21425 112.43925,8.15375 C112.250417,8.09325 112.086333,8.0025 111.947,7.8815 C111.807667,7.7605 111.69675,7.60741667 111.61425,7.42225 C111.53175,7.23708333 111.4905,7.018 111.4905,6.765 C111.4905,6.545 111.551,6.33325 111.672,6.12975 C111.793,5.92625 111.98825,5.74566667 112.25775,5.588 C112.52725,5.43033333 112.880167,5.30108333 113.3165,5.20025 C113.752833,5.09941667 114.286333,5.04166667 114.917,5.027 L114.917,4.5925 C114.917,4.15983333 114.824417,3.83258333 114.63925,3.61075 C114.454083,3.38891667 114.18,3.278 113.817,3.278 C113.578667,3.278 113.377917,3.30825 113.21475,3.36875 C113.051583,3.42925 112.910417,3.49708333 112.79125,3.57225 C112.672083,3.64741667 112.569417,3.71525 112.48325,3.77575 C112.397083,3.83625 112.311833,3.8665 112.2275,3.8665 C112.1615,3.8665 112.10375,3.84908333 112.05425,3.81425 C112.00475,3.77941667 111.965333,3.73633333 111.936,3.685 L111.76,3.3715 C112.068,3.0745 112.399833,2.85266667 112.7555,2.706 C113.111167,2.55933333 113.505333,2.486 113.938,2.486 C114.249667,2.486 114.5265,2.53733333 114.7685,2.64 C115.0105,2.74266667 115.214,2.88566667 115.379,3.069 C115.544,3.25233333 115.668667,3.47416667 115.753,3.7345 C115.837333,3.99483333 115.8795,4.28083333 115.8795,4.5925 L115.8795,8.1565 Z M113.3385,7.557 C113.510833,7.557 113.6685,7.53958333 113.8115,7.50475 C113.9545,7.46991667 114.08925,7.42041667 114.21575,7.35625 C114.34225,7.29208333 114.46325,7.21416667 114.57875,7.1225 C114.69425,7.03083333 114.807,6.92633333 114.917,6.809 L114.917,5.6485 C114.466,5.66316667 114.082833,5.69891667 113.7675,5.75575 C113.452167,5.81258333 113.1955,5.88683333 112.9975,5.9785 C112.7995,6.07016667 112.655583,6.17833333 112.56575,6.303 C112.475917,6.42766667 112.431,6.567 112.431,6.721 C112.431,6.86766667 112.454833,6.99416667 112.5025,7.1005 C112.550167,7.20683333 112.614333,7.29391667 112.695,7.36175 C112.775667,7.42958333 112.871,7.47908333 112.981,7.51025 C113.091,7.54141667 113.210167,7.557 113.3385,7.557 Z" id="Shape" fill="#21252B"></path>
                    <path d="M123.288,3.575 C123.258667,3.61533333 123.229333,3.6465 123.2,3.6685 C123.170667,3.6905 123.1285,3.7015 123.0735,3.7015 C123.0185,3.7015 122.958917,3.67858333 122.89475,3.63275 C122.830583,3.58691667 122.749,3.5365 122.65,3.4815 C122.551,3.4265 122.430917,3.37608333 122.28975,3.33025 C122.148583,3.28441667 121.975333,3.2615 121.77,3.2615 C121.498667,3.2615 121.2585,3.31008333 121.0495,3.40725 C120.8405,3.50441667 120.665417,3.64466667 120.52425,3.828 C120.383083,4.01133333 120.27675,4.23316667 120.20525,4.4935 C120.13375,4.75383333 120.098,5.04533333 120.098,5.368 C120.098,5.70533333 120.1365,6.00508333 120.2135,6.26725 C120.2905,6.52941667 120.398667,6.74941667 120.538,6.92725 C120.677333,7.10508333 120.846917,7.24075 121.04675,7.33425 C121.246583,7.42775 121.471167,7.4745 121.7205,7.4745 C121.958833,7.4745 122.155,7.44608333 122.309,7.38925 C122.463,7.33241667 122.591333,7.26916667 122.694,7.1995 C122.796667,7.12983333 122.881,7.06658333 122.947,7.00975 C123.013,6.95291667 123.079,6.9245 123.145,6.9245 C123.229333,6.9245 123.291667,6.95566667 123.332,7.018 L123.607,7.3755 C123.365,7.6725 123.0625,7.88975 122.6995,8.02725 C122.3365,8.16475 121.953333,8.2335 121.55,8.2335 C121.201667,8.2335 120.878083,8.16933333 120.57925,8.041 C120.280417,7.91266667 120.021,7.72658333 119.801,7.48275 C119.581,7.23891667 119.40775,6.93916667 119.28125,6.5835 C119.15475,6.22783333 119.0915,5.82266667 119.0915,5.368 C119.0915,4.95366667 119.14925,4.5705 119.26475,4.2185 C119.38025,3.8665 119.548917,3.56308333 119.77075,3.30825 C119.992583,3.05341667 120.266667,2.8545 120.593,2.7115 C120.919333,2.5685 121.293333,2.497 121.715,2.497 C122.103667,2.497 122.448333,2.56025 122.749,2.68675 C123.049667,2.81325 123.3155,2.992 123.5465,3.223 L123.288,3.575 Z" id="Path" fill="#21252B"></path>
                    <path d="M126.8795,2.497 C127.2865,2.497 127.654083,2.56483333 127.98225,2.7005 C128.310417,2.83616667 128.589083,3.02866667 128.81825,3.278 C129.047417,3.52733333 129.223417,3.82891667 129.34625,4.18275 C129.469083,4.53658333 129.5305,4.93166667 129.5305,5.368 C129.5305,5.808 129.469083,6.204 129.34625,6.556 C129.223417,6.908 129.047417,7.20866667 128.81825,7.458 C128.589083,7.70733333 128.310417,7.89891667 127.98225,8.03275 C127.654083,8.16658333 127.2865,8.2335 126.8795,8.2335 C126.4725,8.2335 126.104917,8.16658333 125.77675,8.03275 C125.448583,7.89891667 125.169,7.70733333 124.938,7.458 C124.707,7.20866667 124.529167,6.908 124.4045,6.556 C124.279833,6.204 124.2175,5.808 124.2175,5.368 C124.2175,4.93166667 124.279833,4.53658333 124.4045,4.18275 C124.529167,3.82891667 124.707,3.52733333 124.938,3.278 C125.169,3.02866667 125.448583,2.83616667 125.77675,2.7005 C126.104917,2.56483333 126.4725,2.497 126.8795,2.497 Z M126.8795,7.469 C127.4295,7.469 127.840167,7.28475 128.1115,6.91625 C128.382833,6.54775 128.5185,6.0335 128.5185,5.3735 C128.5185,4.70983333 128.382833,4.19283333 128.1115,3.8225 C127.840167,3.45216667 127.4295,3.267 126.8795,3.267 C126.600833,3.267 126.358833,3.31466667 126.1535,3.41 C125.948167,3.50533333 125.77675,3.64283333 125.63925,3.8225 C125.50175,4.00216667 125.399083,4.22308333 125.33125,4.48525 C125.263417,4.74741667 125.2295,5.0435 125.2295,5.3735 C125.2295,5.7035 125.263417,5.99866667 125.33125,6.259 C125.399083,6.51933333 125.50175,6.73841667 125.63925,6.91625 C125.77675,7.09408333 125.948167,7.23066667 126.1535,7.326 C126.358833,7.42133333 126.600833,7.469 126.8795,7.469 Z" id="Shape" fill="#21252B"></path>
                    <path d="M130.7405,8.1565 L130.7405,2.585 L131.3235,2.585 C131.462833,2.585 131.550833,2.65283333 131.5875,2.7885 L131.6645,3.3935 C131.9065,3.12583333 132.176917,2.9095 132.47575,2.7445 C132.774583,2.5795 133.120167,2.497 133.5125,2.497 C133.816833,2.497 134.085417,2.54741667 134.31825,2.64825 C134.551083,2.74908333 134.745417,2.89208333 134.90125,3.07725 C135.057083,3.26241667 135.175333,3.48516667 135.256,3.7455 C135.336667,4.00583333 135.377,4.29366667 135.377,4.609 L135.377,8.1565 L134.398,8.1565 L134.398,4.609 C134.398,4.18733333 134.30175,3.86008333 134.10925,3.62725 C133.91675,3.39441667 133.6225,3.278 133.2265,3.278 C132.936833,3.278 132.666417,3.34766667 132.41525,3.487 C132.164083,3.62633333 131.932167,3.81516667 131.7195,4.0535 L131.7195,8.1565 L130.7405,8.1565 Z" id="Path" fill="#21252B"></path>
                    <path d="M138.545,8.2445 C138.105,8.2445 137.76675,8.12166667 137.53025,7.876 C137.29375,7.63033333 137.1755,7.2765 137.1755,6.8145 L137.1755,3.4045 L136.5045,3.4045 C136.445833,3.4045 136.396333,3.38708333 136.356,3.35225 C136.315667,3.31741667 136.2955,3.26333333 136.2955,3.19 L136.2955,2.7995 L137.2085,2.684 L137.434,0.9625 C137.441333,0.9075 137.465167,0.862583333 137.5055,0.82775 C137.545833,0.792916667 137.597167,0.7755 137.6595,0.7755 L138.1545,0.7755 L138.1545,2.695 L139.7495,2.695 L139.7495,3.4045 L138.1545,3.4045 L138.1545,6.7485 C138.1545,6.98316667 138.211333,7.15733333 138.325,7.271 C138.438667,7.38466667 138.585333,7.4415 138.765,7.4415 C138.867667,7.4415 138.956583,7.42775 139.03175,7.40025 C139.106917,7.37275 139.172,7.3425 139.227,7.3095 C139.282,7.2765 139.32875,7.24625 139.36725,7.21875 C139.40575,7.19125 139.439667,7.1775 139.469,7.1775 C139.520333,7.1775 139.566167,7.20866667 139.6065,7.271 L139.8925,7.7385 C139.723833,7.89616667 139.520333,8.01991667 139.282,8.10975 C139.043667,8.19958333 138.798,8.2445 138.545,8.2445 Z" id="Path" fill="#21252B"></path>
                    <path d="M140.8825,8.1565 L140.8825,2.5135 L141.68,2.5135 C141.819333,2.5135 141.9165,2.53916667 141.9715,2.5905 C142.0265,2.64183333 142.063167,2.72983333 142.0815,2.8545 L142.164,3.5365 C142.365667,3.18816667 142.602167,2.91316667 142.8735,2.7115 C143.144833,2.50983333 143.449167,2.409 143.7865,2.409 C144.065167,2.409 144.296167,2.47316667 144.4795,2.6015 L144.3035,3.619 C144.2925,3.685 144.268667,3.73175 144.232,3.75925 C144.195333,3.78675 144.145833,3.8005 144.0835,3.8005 C144.0285,3.8005 143.953333,3.78766667 143.858,3.762 C143.762667,3.73633333 143.636167,3.7235 143.4785,3.7235 C143.196167,3.7235 142.954167,3.80141667 142.7525,3.95725 C142.550833,4.11308333 142.380333,4.34133333 142.241,4.642 L142.241,8.1565 L140.8825,8.1565 Z" id="Path" fill="#3965AE"></path>
                    <path d="M146.8225,2.5135 L146.8225,8.1565 L145.464,8.1565 L145.464,2.5135 L146.8225,2.5135 Z M147.026,0.869 C147.026,0.986333333 147.002167,1.09633333 146.9545,1.199 C146.906833,1.30166667 146.843583,1.3915 146.76475,1.4685 C146.685917,1.5455 146.593333,1.60691667 146.487,1.65275 C146.380667,1.69858333 146.267,1.7215 146.146,1.7215 C146.028667,1.7215 145.91775,1.69858333 145.81325,1.65275 C145.70875,1.60691667 145.618,1.5455 145.541,1.4685 C145.464,1.3915 145.402583,1.30166667 145.35675,1.199 C145.310917,1.09633333 145.288,0.986333333 145.288,0.869 C145.288,0.748 145.310917,0.634333333 145.35675,0.528 C145.402583,0.421666667 145.464,0.33 145.541,0.253 C145.618,0.176 145.70875,0.114583333 145.81325,0.06875 C145.91775,0.0229166667 146.028667,0 146.146,0 C146.267,0 146.380667,0.0229166667 146.487,0.06875 C146.593333,0.114583333 146.685917,0.176 146.76475,0.253 C146.843583,0.33 146.906833,0.421666667 146.9545,0.528 C147.002167,0.634333333 147.026,0.748 147.026,0.869 Z" id="Shape" fill="#3965AE"></path>
                    <path d="M148.467,8.1565 L148.467,0.055 L149.4515,0.055 L149.4515,3.388 C149.6825,3.12033333 149.947417,2.90491667 150.24625,2.74175 C150.545083,2.57858333 150.887,2.497 151.272,2.497 C151.594667,2.497 151.886167,2.5575 152.1465,2.6785 C152.406833,2.7995 152.628667,2.98008333 152.812,3.22025 C152.995333,3.46041667 153.1365,3.75741667 153.2355,4.11125 C153.3345,4.46508333 153.384,4.873 153.384,5.335 C153.384,5.74566667 153.329,6.12791667 153.219,6.48175 C153.109,6.83558333 152.950417,7.14175 152.74325,7.40025 C152.536083,7.65875 152.283083,7.86225 151.98425,8.01075 C151.685417,8.15925 151.349,8.2335 150.975,8.2335 C150.615667,8.2335 150.310417,8.16383333 150.05925,8.0245 C149.808083,7.88516667 149.589,7.69083333 149.402,7.4415 L149.3525,7.9475 C149.323167,8.08683333 149.238833,8.1565 149.0995,8.1565 L148.467,8.1565 Z M150.953,3.278 C150.634,3.278 150.354417,3.35133333 150.11425,3.498 C149.874083,3.64466667 149.653167,3.85183333 149.4515,4.1195 L149.4515,6.8145 C149.6275,7.0565 149.82275,7.227 150.03725,7.326 C150.25175,7.425 150.491,7.4745 150.755,7.4745 C151.275667,7.4745 151.675333,7.28933333 151.954,6.919 C152.232667,6.54866667 152.372,6.02066667 152.372,5.335 C152.372,4.972 152.339917,4.66033333 152.27575,4.4 C152.211583,4.13966667 152.119,3.92608333 151.998,3.75925 C151.877,3.59241667 151.7285,3.4705 151.5525,3.3935 C151.3765,3.3165 151.176667,3.278 150.953,3.278 Z" id="Shape" fill="#21252B"></path>
                    <path d="M155.43,2.585 L155.43,6.138 C155.43,6.55966667 155.527167,6.886 155.7215,7.117 C155.915833,7.348 156.209167,7.4635 156.6015,7.4635 C156.8875,7.4635 157.157,7.39566667 157.41,7.26 C157.663,7.12433333 157.895833,6.9355 158.1085,6.6935 L158.1085,2.585 L159.0875,2.585 L159.0875,8.1565 L158.5045,8.1565 C158.365167,8.1565 158.277167,8.08866667 158.2405,7.953 L158.1635,7.3535 C157.9215,7.62116667 157.650167,7.83658333 157.3495,7.99975 C157.048833,8.16291667 156.704167,8.2445 156.3155,8.2445 C156.011167,8.2445 155.742583,8.19408333 155.50975,8.09325 C155.276917,7.99241667 155.081667,7.85033333 154.924,7.667 C154.766333,7.48366667 154.648083,7.26183333 154.56925,7.0015 C154.490417,6.74116667 154.451,6.45333333 154.451,6.138 L154.451,2.585 L155.43,2.585 Z" id="Path" fill="#21252B"></path>
                    <path d="M162.3875,8.2445 C161.9475,8.2445 161.60925,8.12166667 161.37275,7.876 C161.13625,7.63033333 161.018,7.2765 161.018,6.8145 L161.018,3.4045 L160.347,3.4045 C160.288333,3.4045 160.238833,3.38708333 160.1985,3.35225 C160.158167,3.31741667 160.138,3.26333333 160.138,3.19 L160.138,2.7995 L161.051,2.684 L161.2765,0.9625 C161.283833,0.9075 161.307667,0.862583333 161.348,0.82775 C161.388333,0.792916667 161.439667,0.7755 161.502,0.7755 L161.997,0.7755 L161.997,2.695 L163.592,2.695 L163.592,3.4045 L161.997,3.4045 L161.997,6.7485 C161.997,6.98316667 162.053833,7.15733333 162.1675,7.271 C162.281167,7.38466667 162.427833,7.4415 162.6075,7.4415 C162.710167,7.4415 162.799083,7.42775 162.87425,7.40025 C162.949417,7.37275 163.0145,7.3425 163.0695,7.3095 C163.1245,7.2765 163.17125,7.24625 163.20975,7.21875 C163.24825,7.19125 163.282167,7.1775 163.3115,7.1775 C163.362833,7.1775 163.408667,7.20866667 163.449,7.271 L163.735,7.7385 C163.566333,7.89616667 163.362833,8.01991667 163.1245,8.10975 C162.886167,8.19958333 162.6405,8.2445 162.3875,8.2445 Z" id="Path" fill="#21252B"></path>
                    <path d="M165.891,2.585 L165.891,8.1565 L164.912,8.1565 L164.912,2.585 L165.891,2.585 Z M166.111,0.836 C166.111,0.931333333 166.09175,1.02025 166.05325,1.10275 C166.01475,1.18525 165.963417,1.25858333 165.89925,1.32275 C165.835083,1.38691667 165.760833,1.43733333 165.6765,1.474 C165.592167,1.51066667 165.502333,1.529 165.407,1.529 C165.311667,1.529 165.22275,1.51066667 165.14025,1.474 C165.05775,1.43733333 164.984417,1.38691667 164.92025,1.32275 C164.856083,1.25858333 164.805667,1.18525 164.769,1.10275 C164.732333,1.02025 164.714,0.931333333 164.714,0.836 C164.714,0.740666667 164.732333,0.649916667 164.769,0.56375 C164.805667,0.477583333 164.856083,0.402416667 164.92025,0.33825 C164.984417,0.274083333 165.05775,0.223666667 165.14025,0.187 C165.22275,0.150333333 165.311667,0.132 165.407,0.132 C165.502333,0.132 165.592167,0.150333333 165.6765,0.187 C165.760833,0.223666667 165.835083,0.274083333 165.89925,0.33825 C165.963417,0.402416667 166.01475,0.477583333 166.05325,0.56375 C166.09175,0.649916667 166.111,0.740666667 166.111,0.836 Z" id="Shape" fill="#21252B"></path>
                    <path d="M169.873,2.497 C170.28,2.497 170.647583,2.56483333 170.97575,2.7005 C171.303917,2.83616667 171.582583,3.02866667 171.81175,3.278 C172.040917,3.52733333 172.216917,3.82891667 172.33975,4.18275 C172.462583,4.53658333 172.524,4.93166667 172.524,5.368 C172.524,5.808 172.462583,6.204 172.33975,6.556 C172.216917,6.908 172.040917,7.20866667 171.81175,7.458 C171.582583,7.70733333 171.303917,7.89891667 170.97575,8.03275 C170.647583,8.16658333 170.28,8.2335 169.873,8.2335 C169.466,8.2335 169.098417,8.16658333 168.77025,8.03275 C168.442083,7.89891667 168.1625,7.70733333 167.9315,7.458 C167.7005,7.20866667 167.522667,6.908 167.398,6.556 C167.273333,6.204 167.211,5.808 167.211,5.368 C167.211,4.93166667 167.273333,4.53658333 167.398,4.18275 C167.522667,3.82891667 167.7005,3.52733333 167.9315,3.278 C168.1625,3.02866667 168.442083,2.83616667 168.77025,2.7005 C169.098417,2.56483333 169.466,2.497 169.873,2.497 Z M169.873,7.469 C170.423,7.469 170.833667,7.28475 171.105,6.91625 C171.376333,6.54775 171.512,6.0335 171.512,5.3735 C171.512,4.70983333 171.376333,4.19283333 171.105,3.8225 C170.833667,3.45216667 170.423,3.267 169.873,3.267 C169.594333,3.267 169.352333,3.31466667 169.147,3.41 C168.941667,3.50533333 168.77025,3.64283333 168.63275,3.8225 C168.49525,4.00216667 168.392583,4.22308333 168.32475,4.48525 C168.256917,4.74741667 168.223,5.0435 168.223,5.3735 C168.223,5.7035 168.256917,5.99866667 168.32475,6.259 C168.392583,6.51933333 168.49525,6.73841667 168.63275,6.91625 C168.77025,7.09408333 168.941667,7.23066667 169.147,7.326 C169.352333,7.42133333 169.594333,7.469 169.873,7.469 Z" id="Shape" fill="#21252B"></path>
                    <path d="M173.734,8.1565 L173.734,2.585 L174.317,2.585 C174.456333,2.585 174.544333,2.65283333 174.581,2.7885 L174.658,3.3935 C174.9,3.12583333 175.170417,2.9095 175.46925,2.7445 C175.768083,2.5795 176.113667,2.497 176.506,2.497 C176.810333,2.497 177.078917,2.54741667 177.31175,2.64825 C177.544583,2.74908333 177.738917,2.89208333 177.89475,3.07725 C178.050583,3.26241667 178.168833,3.48516667 178.2495,3.7455 C178.330167,4.00583333 178.3705,4.29366667 178.3705,4.609 L178.3705,8.1565 L177.3915,8.1565 L177.3915,4.609 C177.3915,4.18733333 177.29525,3.86008333 177.10275,3.62725 C176.91025,3.39441667 176.616,3.278 176.22,3.278 C175.930333,3.278 175.659917,3.34766667 175.40875,3.487 C175.157583,3.62633333 174.925667,3.81516667 174.713,4.0535 L174.713,8.1565 L173.734,8.1565 Z" id="Path" fill="#21252B"></path>
                </g>
                <g id="à-la-clause-de-sauve" transform="translate(59.4173, 16.055)">
                    <path d="M4.389,8.1015 L3.9545,8.1015 C3.85916667,8.1015 3.78216667,8.08683333 3.7235,8.0575 C3.66483333,8.02816667 3.62633333,7.96583333 3.608,7.8705 L3.498,7.3535 C3.35133333,7.4855 3.20833333,7.60375 3.069,7.70825 C2.92966667,7.81275 2.783,7.90075 2.629,7.97225 C2.475,8.04375 2.31091667,8.09783333 2.13675,8.1345 C1.96258333,8.17116667 1.76916667,8.1895 1.5565,8.1895 C1.34016667,8.1895 1.13758333,8.15925 0.94875,8.09875 C0.759916667,8.03825 0.595833333,7.9475 0.4565,7.8265 C0.317166667,7.7055 0.20625,7.55241667 0.12375,7.36725 C0.04125,7.18208333 0,6.963 0,6.71 C0,6.49 0.0605,6.27825 0.1815,6.07475 C0.3025,5.87125 0.49775,5.69066667 0.76725,5.533 C1.03675,5.37533333 1.38966667,5.24608333 1.826,5.14525 C2.26233333,5.04441667 2.79583333,4.98666667 3.4265,4.972 L3.4265,4.5375 C3.4265,4.10483333 3.33391667,3.77758333 3.14875,3.55575 C2.96358333,3.33391667 2.6895,3.223 2.3265,3.223 C2.08816667,3.223 1.88741667,3.25325 1.72425,3.31375 C1.56108333,3.37425 1.41991667,3.44208333 1.30075,3.51725 C1.18158333,3.59241667 1.07891667,3.66025 0.99275,3.72075 C0.906583333,3.78125 0.821333333,3.8115 0.737,3.8115 C0.671,3.8115 0.61325,3.79408333 0.56375,3.75925 C0.51425,3.72441667 0.474833333,3.68133333 0.4455,3.63 L0.2695,3.3165 C0.5775,3.0195 0.909333333,2.79766667 1.265,2.651 C1.62066667,2.50433333 2.01483333,2.431 2.4475,2.431 C2.75916667,2.431 3.036,2.48233333 3.278,2.585 C3.52,2.68766667 3.7235,2.83066667 3.8885,3.014 C4.0535,3.19733333 4.17816667,3.41916667 4.2625,3.6795 C4.34683333,3.93983333 4.389,4.22583333 4.389,4.5375 L4.389,8.1015 Z M1.848,7.502 C2.02033333,7.502 2.178,7.48458333 2.321,7.44975 C2.464,7.41491667 2.59875,7.36541667 2.72525,7.30125 C2.85175,7.23708333 2.97275,7.15916667 3.08825,7.0675 C3.20375,6.97583333 3.3165,6.87133333 3.4265,6.754 L3.4265,5.5935 C2.9755,5.60816667 2.59233333,5.64391667 2.277,5.70075 C1.96166667,5.75758333 1.705,5.83183333 1.507,5.9235 C1.309,6.01516667 1.16508333,6.12333333 1.07525,6.248 C0.985416667,6.37266667 0.9405,6.512 0.9405,6.666 C0.9405,6.81266667 0.964333333,6.93916667 1.012,7.0455 C1.05966667,7.15183333 1.12383333,7.23891667 1.2045,7.30675 C1.28516667,7.37458333 1.3805,7.42408333 1.4905,7.45525 C1.6005,7.48641667 1.71966667,7.502 1.848,7.502 Z M1.848,0.132 C1.969,0.132 2.05883333,0.15125 2.1175,0.18975 C2.17616667,0.22825 2.23116667,0.289666667 2.2825,0.374 L3.102,1.705 L2.541,1.705 C2.464,1.705 2.40166667,1.69308333 2.354,1.66925 C2.30633333,1.64541667 2.25683333,1.606 2.2055,1.551 L0.9185,0.132 L1.848,0.132 Z" id="Shape" fill="#21252B"></path>
                    <polygon id="Path" fill="#21252B" points="9.086 0 9.086 8.1015 8.107 8.1015 8.107 0"></polygon>
                    <path d="M14.905,8.1015 L14.4705,8.1015 C14.3751667,8.1015 14.2981667,8.08683333 14.2395,8.0575 C14.1808333,8.02816667 14.1423333,7.96583333 14.124,7.8705 L14.014,7.3535 C13.8673333,7.4855 13.7243333,7.60375 13.585,7.70825 C13.4456667,7.81275 13.299,7.90075 13.145,7.97225 C12.991,8.04375 12.8269167,8.09783333 12.65275,8.1345 C12.4785833,8.17116667 12.2851667,8.1895 12.0725,8.1895 C11.8561667,8.1895 11.6535833,8.15925 11.46475,8.09875 C11.2759167,8.03825 11.1118333,7.9475 10.9725,7.8265 C10.8331667,7.7055 10.72225,7.55241667 10.63975,7.36725 C10.55725,7.18208333 10.516,6.963 10.516,6.71 C10.516,6.49 10.5765,6.27825 10.6975,6.07475 C10.8185,5.87125 11.01375,5.69066667 11.28325,5.533 C11.55275,5.37533333 11.9056667,5.24608333 12.342,5.14525 C12.7783333,5.04441667 13.3118333,4.98666667 13.9425,4.972 L13.9425,4.5375 C13.9425,4.10483333 13.8499167,3.77758333 13.66475,3.55575 C13.4795833,3.33391667 13.2055,3.223 12.8425,3.223 C12.6041667,3.223 12.4034167,3.25325 12.24025,3.31375 C12.0770833,3.37425 11.9359167,3.44208333 11.81675,3.51725 C11.6975833,3.59241667 11.5949167,3.66025 11.50875,3.72075 C11.4225833,3.78125 11.3373333,3.8115 11.253,3.8115 C11.187,3.8115 11.12925,3.79408333 11.07975,3.75925 C11.03025,3.72441667 10.9908333,3.68133333 10.9615,3.63 L10.7855,3.3165 C11.0935,3.0195 11.4253333,2.79766667 11.781,2.651 C12.1366667,2.50433333 12.5308333,2.431 12.9635,2.431 C13.2751667,2.431 13.552,2.48233333 13.794,2.585 C14.036,2.68766667 14.2395,2.83066667 14.4045,3.014 C14.5695,3.19733333 14.6941667,3.41916667 14.7785,3.6795 C14.8628333,3.93983333 14.905,4.22583333 14.905,4.5375 L14.905,8.1015 Z M12.364,7.502 C12.5363333,7.502 12.694,7.48458333 12.837,7.44975 C12.98,7.41491667 13.11475,7.36541667 13.24125,7.30125 C13.36775,7.23708333 13.48875,7.15916667 13.60425,7.0675 C13.71975,6.97583333 13.8325,6.87133333 13.9425,6.754 L13.9425,5.5935 C13.4915,5.60816667 13.1083333,5.64391667 12.793,5.70075 C12.4776667,5.75758333 12.221,5.83183333 12.023,5.9235 C11.825,6.01516667 11.6810833,6.12333333 11.59125,6.248 C11.5014167,6.37266667 11.4565,6.512 11.4565,6.666 C11.4565,6.81266667 11.4803333,6.93916667 11.528,7.0455 C11.5756667,7.15183333 11.6398333,7.23891667 11.7205,7.30675 C11.8011667,7.37458333 11.8965,7.42408333 12.0065,7.45525 C12.1165,7.48641667 12.2356667,7.502 12.364,7.502 Z" id="Shape" fill="#21252B"></path>
                    <path d="M22.3135,3.52 C22.2841667,3.56033333 22.2548333,3.5915 22.2255,3.6135 C22.1961667,3.6355 22.154,3.6465 22.099,3.6465 C22.044,3.6465 21.9844167,3.62358333 21.92025,3.57775 C21.8560833,3.53191667 21.7745,3.4815 21.6755,3.4265 C21.5765,3.3715 21.4564167,3.32108333 21.31525,3.27525 C21.1740833,3.22941667 21.0008333,3.2065 20.7955,3.2065 C20.5241667,3.2065 20.284,3.25508333 20.075,3.35225 C19.866,3.44941667 19.6909167,3.58966667 19.54975,3.773 C19.4085833,3.95633333 19.30225,4.17816667 19.23075,4.4385 C19.15925,4.69883333 19.1235,4.99033333 19.1235,5.313 C19.1235,5.65033333 19.162,5.95008333 19.239,6.21225 C19.316,6.47441667 19.4241667,6.69441667 19.5635,6.87225 C19.7028333,7.05008333 19.8724167,7.18575 20.07225,7.27925 C20.2720833,7.37275 20.4966667,7.4195 20.746,7.4195 C20.9843333,7.4195 21.1805,7.39108333 21.3345,7.33425 C21.4885,7.27741667 21.6168333,7.21416667 21.7195,7.1445 C21.8221667,7.07483333 21.9065,7.01158333 21.9725,6.95475 C22.0385,6.89791667 22.1045,6.8695 22.1705,6.8695 C22.2548333,6.8695 22.3171667,6.90066667 22.3575,6.963 L22.6325,7.3205 C22.3905,7.6175 22.088,7.83475 21.725,7.97225 C21.362,8.10975 20.9788333,8.1785 20.5755,8.1785 C20.2271667,8.1785 19.9035833,8.11433333 19.60475,7.986 C19.3059167,7.85766667 19.0465,7.67158333 18.8265,7.42775 C18.6065,7.18391667 18.43325,6.88416667 18.30675,6.5285 C18.18025,6.17283333 18.117,5.76766667 18.117,5.313 C18.117,4.89866667 18.17475,4.5155 18.29025,4.1635 C18.40575,3.8115 18.5744167,3.50808333 18.79625,3.25325 C19.0180833,2.99841667 19.2921667,2.7995 19.6185,2.6565 C19.9448333,2.5135 20.3188333,2.442 20.7405,2.442 C21.1291667,2.442 21.4738333,2.50525 21.7745,2.63175 C22.0751667,2.75825 22.341,2.937 22.572,3.168 L22.3135,3.52 Z" id="Path" fill="#21252B"></path>
                    <polygon id="Path" fill="#21252B" points="24.739 0 24.739 8.1015 23.76 8.1015 23.76 0"></polygon>
                    <path d="M30.558,8.1015 L30.1235,8.1015 C30.0281667,8.1015 29.9511667,8.08683333 29.8925,8.0575 C29.8338333,8.02816667 29.7953333,7.96583333 29.777,7.8705 L29.667,7.3535 C29.5203333,7.4855 29.3773333,7.60375 29.238,7.70825 C29.0986667,7.81275 28.952,7.90075 28.798,7.97225 C28.644,8.04375 28.4799167,8.09783333 28.30575,8.1345 C28.1315833,8.17116667 27.9381667,8.1895 27.7255,8.1895 C27.5091667,8.1895 27.3065833,8.15925 27.11775,8.09875 C26.9289167,8.03825 26.7648333,7.9475 26.6255,7.8265 C26.4861667,7.7055 26.37525,7.55241667 26.29275,7.36725 C26.21025,7.18208333 26.169,6.963 26.169,6.71 C26.169,6.49 26.2295,6.27825 26.3505,6.07475 C26.4715,5.87125 26.66675,5.69066667 26.93625,5.533 C27.20575,5.37533333 27.5586667,5.24608333 27.995,5.14525 C28.4313333,5.04441667 28.9648333,4.98666667 29.5955,4.972 L29.5955,4.5375 C29.5955,4.10483333 29.5029167,3.77758333 29.31775,3.55575 C29.1325833,3.33391667 28.8585,3.223 28.4955,3.223 C28.2571667,3.223 28.0564167,3.25325 27.89325,3.31375 C27.7300833,3.37425 27.5889167,3.44208333 27.46975,3.51725 C27.3505833,3.59241667 27.2479167,3.66025 27.16175,3.72075 C27.0755833,3.78125 26.9903333,3.8115 26.906,3.8115 C26.84,3.8115 26.78225,3.79408333 26.73275,3.75925 C26.68325,3.72441667 26.6438333,3.68133333 26.6145,3.63 L26.4385,3.3165 C26.7465,3.0195 27.0783333,2.79766667 27.434,2.651 C27.7896667,2.50433333 28.1838333,2.431 28.6165,2.431 C28.9281667,2.431 29.205,2.48233333 29.447,2.585 C29.689,2.68766667 29.8925,2.83066667 30.0575,3.014 C30.2225,3.19733333 30.3471667,3.41916667 30.4315,3.6795 C30.5158333,3.93983333 30.558,4.22583333 30.558,4.5375 L30.558,8.1015 Z M28.017,7.502 C28.1893333,7.502 28.347,7.48458333 28.49,7.44975 C28.633,7.41491667 28.76775,7.36541667 28.89425,7.30125 C29.02075,7.23708333 29.14175,7.15916667 29.25725,7.0675 C29.37275,6.97583333 29.4855,6.87133333 29.5955,6.754 L29.5955,5.5935 C29.1445,5.60816667 28.7613333,5.64391667 28.446,5.70075 C28.1306667,5.75758333 27.874,5.83183333 27.676,5.9235 C27.478,6.01516667 27.3340833,6.12333333 27.24425,6.248 C27.1544167,6.37266667 27.1095,6.512 27.1095,6.666 C27.1095,6.81266667 27.1333333,6.93916667 27.181,7.0455 C27.2286667,7.15183333 27.2928333,7.23891667 27.3735,7.30675 C27.4541667,7.37458333 27.5495,7.42408333 27.6595,7.45525 C27.7695,7.48641667 27.8886667,7.502 28.017,7.502 Z" id="Shape" fill="#21252B"></path>
                    <path d="M32.89,2.53 L32.89,6.083 C32.89,6.50466667 32.9871667,6.831 33.1815,7.062 C33.3758333,7.293 33.6691667,7.4085 34.0615,7.4085 C34.3475,7.4085 34.617,7.34066667 34.87,7.205 C35.123,7.06933333 35.3558333,6.8805 35.5685,6.6385 L35.5685,2.53 L36.5475,2.53 L36.5475,8.1015 L35.9645,8.1015 C35.8251667,8.1015 35.7371667,8.03366667 35.7005,7.898 L35.6235,7.2985 C35.3815,7.56616667 35.1101667,7.78158333 34.8095,7.94475 C34.5088333,8.10791667 34.1641667,8.1895 33.7755,8.1895 C33.4711667,8.1895 33.2025833,8.13908333 32.96975,8.03825 C32.7369167,7.93741667 32.5416667,7.79533333 32.384,7.612 C32.2263333,7.42866667 32.1080833,7.20683333 32.02925,6.9465 C31.9504167,6.68616667 31.911,6.39833333 31.911,6.083 L31.911,2.53 L32.89,2.53 Z" id="Path" fill="#21252B"></path>
                    <path d="M41.349,3.4485 C41.305,3.52916667 41.2371667,3.5695 41.1455,3.5695 C41.0905,3.5695 41.0281667,3.54933333 40.9585,3.509 C40.8888333,3.46866667 40.8035833,3.42375 40.70275,3.37425 C40.6019167,3.32475 40.4818333,3.27891667 40.3425,3.23675 C40.2031667,3.19458333 40.0381667,3.1735 39.8475,3.1735 C39.6825,3.1735 39.534,3.19458333 39.402,3.23675 C39.27,3.27891667 39.15725,3.33666667 39.06375,3.41 C38.97025,3.48333333 38.89875,3.56858333 38.84925,3.66575 C38.79975,3.76291667 38.775,3.86833333 38.775,3.982 C38.775,4.125 38.81625,4.24416667 38.89875,4.3395 C38.98125,4.43483333 39.0903333,4.51733333 39.226,4.587 C39.3616667,4.65666667 39.5156667,4.71808333 39.688,4.77125 C39.8603333,4.82441667 40.03725,4.88125 40.21875,4.94175 C40.40025,5.00225 40.5771667,5.06916667 40.7495,5.1425 C40.9218333,5.21583333 41.0758333,5.3075 41.2115,5.4175 C41.3471667,5.5275 41.45625,5.66225 41.53875,5.82175 C41.62125,5.98125 41.6625,6.17283333 41.6625,6.3965 C41.6625,6.65316667 41.6166667,6.89058333 41.525,7.10875 C41.4333333,7.32691667 41.2976667,7.51575 41.118,7.67525 C40.9383333,7.83475 40.7183333,7.96033333 40.458,8.052 C40.1976667,8.14366667 39.897,8.1895 39.556,8.1895 C39.1673333,8.1895 38.8153333,8.12625 38.5,7.99975 C38.1846667,7.87325 37.917,7.711 37.697,7.513 L37.928,7.139 C37.9573333,7.09133333 37.9921667,7.05466667 38.0325,7.029 C38.0728333,7.00333333 38.126,6.9905 38.192,6.9905 C38.258,6.9905 38.3276667,7.01616667 38.401,7.0675 C38.4743333,7.11883333 38.56325,7.17566667 38.66775,7.238 C38.77225,7.30033333 38.89875,7.35716667 39.04725,7.4085 C39.19575,7.45983333 39.3818333,7.4855 39.6055,7.4855 C39.7961667,7.4855 39.963,7.46075 40.106,7.41125 C40.249,7.36175 40.3681667,7.29483333 40.4635,7.2105 C40.5588333,7.12616667 40.6294167,7.029 40.67525,6.919 C40.7210833,6.809 40.744,6.69166667 40.744,6.567 C40.744,6.413 40.70275,6.28558333 40.62025,6.18475 C40.53775,6.08391667 40.4286667,5.99775 40.293,5.92625 C40.1573333,5.85475 40.0024167,5.79241667 39.82825,5.73925 C39.6540833,5.68608333 39.47625,5.63016667 39.29475,5.5715 C39.11325,5.51283333 38.9354167,5.44591667 38.76125,5.37075 C38.5870833,5.29558333 38.4321667,5.20116667 38.2965,5.0875 C38.1608333,4.97383333 38.05175,4.83358333 37.96925,4.66675 C37.88675,4.49991667 37.8455,4.29733333 37.8455,4.059 C37.8455,3.84633333 37.8895,3.64191667 37.9775,3.44575 C38.0655,3.24958333 38.1938333,3.07725 38.3625,2.92875 C38.5311667,2.78025 38.7383333,2.662 38.984,2.574 C39.2296667,2.486 39.5101667,2.442 39.8255,2.442 C40.1921667,2.442 40.52125,2.49975 40.81275,2.61525 C41.10425,2.73075 41.3563333,2.88933333 41.569,3.091 L41.349,3.4485 Z" id="Path" fill="#21252B"></path>
                    <path d="M45.1385,2.442 C45.4721667,2.442 45.7801667,2.49791667 46.0625,2.60975 C46.3448333,2.72158333 46.5886667,2.88291667 46.794,3.09375 C46.9993333,3.30458333 47.15975,3.56491667 47.27525,3.87475 C47.39075,4.18458333 47.4485,4.5375 47.4485,4.9335 C47.4485,5.0875 47.432,5.19016667 47.399,5.2415 C47.366,5.29283333 47.3036667,5.3185 47.212,5.3185 L43.505,5.3185 C43.5123333,5.6705 43.56,5.97666667 43.648,6.237 C43.736,6.49733333 43.857,6.71458333 44.011,6.88875 C44.165,7.06291667 44.3483333,7.19308333 44.561,7.27925 C44.7736667,7.36541667 45.012,7.4085 45.276,7.4085 C45.5216667,7.4085 45.7334167,7.38008333 45.91125,7.32325 C46.0890833,7.26641667 46.2421667,7.205 46.3705,7.139 C46.4988333,7.073 46.6060833,7.01158333 46.69225,6.95475 C46.7784167,6.89791667 46.8526667,6.8695 46.915,6.8695 C46.9956667,6.8695 47.058,6.90066667 47.102,6.963 L47.377,7.3205 C47.256,7.46716667 47.1111667,7.59458333 46.9425,7.70275 C46.7738333,7.81091667 46.59325,7.89983333 46.40075,7.9695 C46.20825,8.03916667 46.0093333,8.09141667 45.804,8.12625 C45.5986667,8.16108333 45.3951667,8.1785 45.1935,8.1785 C44.8085,8.1785 44.45375,8.11341667 44.12925,7.98325 C43.80475,7.85308333 43.52425,7.66241667 43.28775,7.41125 C43.05125,7.16008333 42.867,6.84933333 42.735,6.479 C42.603,6.10866667 42.537,5.68333333 42.537,5.203 C42.537,4.81433333 42.5965833,4.45133333 42.71575,4.114 C42.8349167,3.77666667 43.0063333,3.48425 43.23,3.23675 C43.4536667,2.98925 43.7268333,2.79491667 44.0495,2.65375 C44.3721667,2.51258333 44.7351667,2.442 45.1385,2.442 Z M45.1605,3.1625 C44.6875,3.1625 44.3153333,3.29908333 44.044,3.57225 C43.7726667,3.84541667 43.604,4.224 43.538,4.708 L46.5685,4.708 C46.5685,4.48066667 46.5373333,4.27258333 46.475,4.08375 C46.4126667,3.89491667 46.321,3.73175 46.2,3.59425 C46.079,3.45675 45.9314167,3.35041667 45.75725,3.27525 C45.5830833,3.20008333 45.3841667,3.1625 45.1605,3.1625 Z" id="Shape" fill="#21252B"></path>
                    <path d="M54.7415,8.1015 C54.6021667,8.1015 54.5141667,8.03366667 54.4775,7.898 L54.3895,7.2215 C54.1511667,7.51116667 53.8789167,7.74308333 53.57275,7.91725 C53.2665833,8.09141667 52.9155,8.1785 52.5195,8.1785 C52.2005,8.1785 51.9108333,8.11708333 51.6505,7.99425 C51.3901667,7.87141667 51.1683333,7.69083333 50.985,7.4525 C50.8016667,7.21416667 50.6605,6.91716667 50.5615,6.5615 C50.4625,6.20583333 50.413,5.797 50.413,5.335 C50.413,4.92433333 50.468,4.54208333 50.578,4.18825 C50.688,3.83441667 50.8465833,3.52733333 51.05375,3.267 C51.2609167,3.00666667 51.513,2.80225 51.81,2.65375 C52.107,2.50525 52.4443333,2.431 52.822,2.431 C53.163,2.431 53.4545,2.48875 53.6965,2.60425 C53.9385,2.71975 54.1548333,2.882 54.3455,3.091 L54.3455,0 L55.3245,0 L55.3245,8.1015 L54.7415,8.1015 Z M52.844,7.3865 C53.163,7.3865 53.4425833,7.31316667 53.68275,7.1665 C53.9229167,7.01983333 54.1438333,6.81266667 54.3455,6.545 L54.3455,3.85 C54.1658333,3.608 53.96875,3.43841667 53.75425,3.34125 C53.53975,3.24408333 53.3023333,3.1955 53.042,3.1955 C52.5213333,3.1955 52.1216667,3.38066667 51.843,3.751 C51.5643333,4.12133333 51.425,4.64933333 51.425,5.335 C51.425,5.698 51.4561667,6.00875 51.5185,6.26725 C51.5808333,6.52575 51.6725,6.73841667 51.7935,6.90525 C51.9145,7.07208333 52.063,7.194 52.239,7.271 C52.415,7.348 52.6166667,7.3865 52.844,7.3865 Z" id="Shape" fill="#21252B"></path>
                    <path d="M59.1745,2.442 C59.5081667,2.442 59.8161667,2.49791667 60.0985,2.60975 C60.3808333,2.72158333 60.6246667,2.88291667 60.83,3.09375 C61.0353333,3.30458333 61.19575,3.56491667 61.31125,3.87475 C61.42675,4.18458333 61.4845,4.5375 61.4845,4.9335 C61.4845,5.0875 61.468,5.19016667 61.435,5.2415 C61.402,5.29283333 61.3396667,5.3185 61.248,5.3185 L57.541,5.3185 C57.5483333,5.6705 57.596,5.97666667 57.684,6.237 C57.772,6.49733333 57.893,6.71458333 58.047,6.88875 C58.201,7.06291667 58.3843333,7.19308333 58.597,7.27925 C58.8096667,7.36541667 59.048,7.4085 59.312,7.4085 C59.5576667,7.4085 59.7694167,7.38008333 59.94725,7.32325 C60.1250833,7.26641667 60.2781667,7.205 60.4065,7.139 C60.5348333,7.073 60.6420833,7.01158333 60.72825,6.95475 C60.8144167,6.89791667 60.8886667,6.8695 60.951,6.8695 C61.0316667,6.8695 61.094,6.90066667 61.138,6.963 L61.413,7.3205 C61.292,7.46716667 61.1471667,7.59458333 60.9785,7.70275 C60.8098333,7.81091667 60.62925,7.89983333 60.43675,7.9695 C60.24425,8.03916667 60.0453333,8.09141667 59.84,8.12625 C59.6346667,8.16108333 59.4311667,8.1785 59.2295,8.1785 C58.8445,8.1785 58.48975,8.11341667 58.16525,7.98325 C57.84075,7.85308333 57.56025,7.66241667 57.32375,7.41125 C57.08725,7.16008333 56.903,6.84933333 56.771,6.479 C56.639,6.10866667 56.573,5.68333333 56.573,5.203 C56.573,4.81433333 56.6325833,4.45133333 56.75175,4.114 C56.8709167,3.77666667 57.0423333,3.48425 57.266,3.23675 C57.4896667,2.98925 57.7628333,2.79491667 58.0855,2.65375 C58.4081667,2.51258333 58.7711667,2.442 59.1745,2.442 Z M59.1965,3.1625 C58.7235,3.1625 58.3513333,3.29908333 58.08,3.57225 C57.8086667,3.84541667 57.64,4.224 57.574,4.708 L60.6045,4.708 C60.6045,4.48066667 60.5733333,4.27258333 60.511,4.08375 C60.4486667,3.89491667 60.357,3.73175 60.236,3.59425 C60.115,3.45675 59.9674167,3.35041667 59.79325,3.27525 C59.6190833,3.20008333 59.4201667,3.1625 59.1965,3.1625 Z" id="Shape" fill="#21252B"></path>
                    <path d="M68.1285,3.5585 C68.0918333,3.61716667 68.0533333,3.65841667 68.013,3.68225 C67.9726667,3.70608333 67.9213333,3.718 67.859,3.718 C67.793,3.718 67.7224167,3.69966667 67.64725,3.663 C67.5720833,3.62633333 67.485,3.58508333 67.386,3.53925 C67.287,3.49341667 67.17425,3.45216667 67.04775,3.4155 C66.92125,3.37883333 66.7718333,3.3605 66.5995,3.3605 C66.3318333,3.3605 66.121,3.41733333 65.967,3.531 C65.813,3.64466667 65.736,3.79316667 65.736,3.9765 C65.736,4.0975 65.7754167,4.19925 65.85425,4.28175 C65.9330833,4.36425 66.0375833,4.43666667 66.16775,4.499 C66.2979167,4.56133333 66.4455,4.61725 66.6105,4.66675 C66.7755,4.71625 66.9441667,4.77033333 67.1165,4.829 C67.2888333,4.88766667 67.4575,4.95458333 67.6225,5.02975 C67.7875,5.10491667 67.9350833,5.20025 68.06525,5.31575 C68.1954167,5.43125 68.2999167,5.56966667 68.37875,5.731 C68.4575833,5.89233333 68.497,6.08666667 68.497,6.314 C68.497,6.58533333 68.4475,6.83558333 68.3485,7.06475 C68.2495,7.29391667 68.1046667,7.49191667 67.914,7.65875 C67.7233333,7.82558333 67.48775,7.95575 67.20725,8.04925 C66.92675,8.14275 66.605,8.1895 66.242,8.1895 C66.0476667,8.1895 65.8579167,8.17208333 65.67275,8.13725 C65.4875833,8.10241667 65.30975,8.05383333 65.13925,7.9915 C64.96875,7.92916667 64.8110833,7.85583333 64.66625,7.7715 C64.5214167,7.68716667 64.394,7.5955 64.284,7.4965 L64.5975,6.9795 C64.6378333,6.91716667 64.6855,6.8695 64.7405,6.8365 C64.7955,6.8035 64.8651667,6.787 64.9495,6.787 C65.0338333,6.787 65.1135833,6.81083333 65.18875,6.8585 C65.2639167,6.90616667 65.351,6.9575 65.45,7.0125 C65.549,7.0675 65.6654167,7.11883333 65.79925,7.1665 C65.9330833,7.21416667 66.1026667,7.238 66.308,7.238 C66.4693333,7.238 66.60775,7.21875 66.72325,7.18025 C66.83875,7.14175 66.9340833,7.09133333 67.00925,7.029 C67.0844167,6.96666667 67.1394167,6.89425 67.17425,6.81175 C67.2090833,6.72925 67.2265,6.644 67.2265,6.556 C67.2265,6.424 67.1870833,6.31583333 67.10825,6.2315 C67.0294167,6.14716667 66.9249167,6.07383333 66.79475,6.0115 C66.6645833,5.94916667 66.5160833,5.89325 66.34925,5.84375 C66.1824167,5.79425 66.0119167,5.74016667 65.83775,5.6815 C65.6635833,5.62283333 65.4930833,5.55408333 65.32625,5.47525 C65.1594167,5.39641667 65.0109167,5.2965 64.88075,5.1755 C64.7505833,5.0545 64.6460833,4.906 64.56725,4.73 C64.4884167,4.554 64.449,4.34133333 64.449,4.092 C64.449,3.861 64.4948333,3.641 64.5865,3.432 C64.6781667,3.223 64.8129167,3.04058333 64.99075,2.88475 C65.1685833,2.72891667 65.3904167,2.60425 65.65625,2.51075 C65.9220833,2.41725 66.2291667,2.3705 66.5775,2.3705 C66.9661667,2.3705 67.32,2.43466667 67.639,2.563 C67.958,2.69133333 68.2238333,2.86 68.4365,3.069 L68.1285,3.5585 Z" id="Path" fill="#3965AE"></path>
                    <path d="M73.755,8.1015 L73.3205,8.1015 C73.2251667,8.1015 73.1481667,8.08683333 73.0895,8.0575 C73.0308333,8.02816667 72.9923333,7.96583333 72.974,7.8705 L72.864,7.3535 C72.7173333,7.4855 72.5743333,7.60375 72.435,7.70825 C72.2956667,7.81275 72.149,7.90075 71.995,7.97225 C71.841,8.04375 71.6769167,8.09783333 71.50275,8.1345 C71.3285833,8.17116667 71.1351667,8.1895 70.9225,8.1895 C70.7061667,8.1895 70.5035833,8.15925 70.31475,8.09875 C70.1259167,8.03825 69.9618333,7.9475 69.8225,7.8265 C69.6831667,7.7055 69.57225,7.55241667 69.48975,7.36725 C69.40725,7.18208333 69.366,6.963 69.366,6.71 C69.366,6.49 69.4265,6.27825 69.5475,6.07475 C69.6685,5.87125 69.86375,5.69066667 70.13325,5.533 C70.40275,5.37533333 70.7556667,5.24608333 71.192,5.14525 C71.6283333,5.04441667 72.1618333,4.98666667 72.7925,4.972 L72.7925,4.5375 C72.7925,4.10483333 72.6999167,3.77758333 72.51475,3.55575 C72.3295833,3.33391667 72.0555,3.223 71.6925,3.223 C71.4541667,3.223 71.2534167,3.25325 71.09025,3.31375 C70.9270833,3.37425 70.7859167,3.44208333 70.66675,3.51725 C70.5475833,3.59241667 70.4449167,3.66025 70.35875,3.72075 C70.2725833,3.78125 70.1873333,3.8115 70.103,3.8115 C70.037,3.8115 69.97925,3.79408333 69.92975,3.75925 C69.88025,3.72441667 69.8408333,3.68133333 69.8115,3.63 L69.6355,3.3165 C69.9435,3.0195 70.2753333,2.79766667 70.631,2.651 C70.9866667,2.50433333 71.3808333,2.431 71.8135,2.431 C72.1251667,2.431 72.402,2.48233333 72.644,2.585 C72.886,2.68766667 73.0895,2.83066667 73.2545,3.014 C73.4195,3.19733333 73.5441667,3.41916667 73.6285,3.6795 C73.7128333,3.93983333 73.755,4.22583333 73.755,4.5375 L73.755,8.1015 Z M71.214,7.502 C71.3863333,7.502 71.544,7.48458333 71.687,7.44975 C71.83,7.41491667 71.96475,7.36541667 72.09125,7.30125 C72.21775,7.23708333 72.33875,7.15916667 72.45425,7.0675 C72.56975,6.97583333 72.6825,6.87133333 72.7925,6.754 L72.7925,5.5935 C72.3415,5.60816667 71.9583333,5.64391667 71.643,5.70075 C71.3276667,5.75758333 71.071,5.83183333 70.873,5.9235 C70.675,6.01516667 70.5310833,6.12333333 70.44125,6.248 C70.3514167,6.37266667 70.3065,6.512 70.3065,6.666 C70.3065,6.81266667 70.3303333,6.93916667 70.378,7.0455 C70.4256667,7.15183333 70.4898333,7.23891667 70.5705,7.30675 C70.6511667,7.37458333 70.7465,7.42408333 70.8565,7.45525 C70.9665,7.48641667 71.0856667,7.502 71.214,7.502 Z" id="Shape" fill="#21252B"></path>
                    <path d="M76.087,2.53 L76.087,6.083 C76.087,6.50466667 76.1841667,6.831 76.3785,7.062 C76.5728333,7.293 76.8661667,7.4085 77.2585,7.4085 C77.5445,7.4085 77.814,7.34066667 78.067,7.205 C78.32,7.06933333 78.5528333,6.8805 78.7655,6.6385 L78.7655,2.53 L79.7445,2.53 L79.7445,8.1015 L79.1615,8.1015 C79.0221667,8.1015 78.9341667,8.03366667 78.8975,7.898 L78.8205,7.2985 C78.5785,7.56616667 78.3071667,7.78158333 78.0065,7.94475 C77.7058333,8.10791667 77.3611667,8.1895 76.9725,8.1895 C76.6681667,8.1895 76.3995833,8.13908333 76.16675,8.03825 C75.9339167,7.93741667 75.7386667,7.79533333 75.581,7.612 C75.4233333,7.42866667 75.3050833,7.20683333 75.22625,6.9465 C75.1474167,6.68616667 75.108,6.39833333 75.108,6.083 L75.108,2.53 L76.087,2.53 Z" id="Path" fill="#21252B"></path>
                    <path d="M80.652,2.53 L81.455,2.53 C81.532,2.53 81.5961667,2.55016667 81.6475,2.5905 C81.6988333,2.63083333 81.7355,2.6785 81.7575,2.7335 L83.171,6.3195 C83.2223333,6.4515 83.2626667,6.5835 83.292,6.7155 C83.3213333,6.8475 83.3488333,6.97766667 83.3745,7.106 C83.4038333,6.97766667 83.435,6.8475 83.468,6.7155 C83.501,6.5835 83.5431667,6.4515 83.5945,6.3195 L85.0245,2.7335 C85.0465,2.67483333 85.08225,2.62625 85.13175,2.58775 C85.18125,2.54925 85.2426667,2.53 85.316,2.53 L86.0805,2.53 L83.809,8.1015 L82.9235,8.1015 L80.652,2.53 Z" id="Path" fill="#21252B"></path>
                    <path d="M89.0505,2.442 C89.3841667,2.442 89.6921667,2.49791667 89.9745,2.60975 C90.2568333,2.72158333 90.5006667,2.88291667 90.706,3.09375 C90.9113333,3.30458333 91.07175,3.56491667 91.18725,3.87475 C91.30275,4.18458333 91.3605,4.5375 91.3605,4.9335 C91.3605,5.0875 91.344,5.19016667 91.311,5.2415 C91.278,5.29283333 91.2156667,5.3185 91.124,5.3185 L87.417,5.3185 C87.4243333,5.6705 87.472,5.97666667 87.56,6.237 C87.648,6.49733333 87.769,6.71458333 87.923,6.88875 C88.077,7.06291667 88.2603333,7.19308333 88.473,7.27925 C88.6856667,7.36541667 88.924,7.4085 89.188,7.4085 C89.4336667,7.4085 89.6454167,7.38008333 89.82325,7.32325 C90.0010833,7.26641667 90.1541667,7.205 90.2825,7.139 C90.4108333,7.073 90.5180833,7.01158333 90.60425,6.95475 C90.6904167,6.89791667 90.7646667,6.8695 90.827,6.8695 C90.9076667,6.8695 90.97,6.90066667 91.014,6.963 L91.289,7.3205 C91.168,7.46716667 91.0231667,7.59458333 90.8545,7.70275 C90.6858333,7.81091667 90.50525,7.89983333 90.31275,7.9695 C90.12025,8.03916667 89.9213333,8.09141667 89.716,8.12625 C89.5106667,8.16108333 89.3071667,8.1785 89.1055,8.1785 C88.7205,8.1785 88.36575,8.11341667 88.04125,7.98325 C87.71675,7.85308333 87.43625,7.66241667 87.19975,7.41125 C86.96325,7.16008333 86.779,6.84933333 86.647,6.479 C86.515,6.10866667 86.449,5.68333333 86.449,5.203 C86.449,4.81433333 86.5085833,4.45133333 86.62775,4.114 C86.7469167,3.77666667 86.9183333,3.48425 87.142,3.23675 C87.3656667,2.98925 87.6388333,2.79491667 87.9615,2.65375 C88.2841667,2.51258333 88.6471667,2.442 89.0505,2.442 Z M89.0725,3.1625 C88.5995,3.1625 88.2273333,3.29908333 87.956,3.57225 C87.6846667,3.84541667 87.516,4.224 87.45,4.708 L90.4805,4.708 C90.4805,4.48066667 90.4493333,4.27258333 90.387,4.08375 C90.3246667,3.89491667 90.233,3.73175 90.112,3.59425 C89.991,3.45675 89.8434167,3.35041667 89.66925,3.27525 C89.4950833,3.20008333 89.2961667,3.1625 89.0725,3.1625 Z" id="Shape" fill="#21252B"></path>
                    <path d="M94.4845,2.4365 C94.7265,2.4365 94.9529167,2.46308333 95.16375,2.51625 C95.3745833,2.56941667 95.5661667,2.64733333 95.7385,2.75 L97.251,2.75 L97.251,3.113 C97.251,3.234 97.174,3.311 97.02,3.344 L96.3875,3.432 C96.5121667,3.67033333 96.5745,3.93616667 96.5745,4.2295 C96.5745,4.50083333 96.52225,4.74741667 96.41775,4.96925 C96.31325,5.19108333 96.1684167,5.38083333 95.98325,5.5385 C95.7980833,5.69616667 95.5780833,5.81716667 95.32325,5.9015 C95.0684167,5.98583333 94.7888333,6.028 94.4845,6.028 C94.2241667,6.028 93.9785,5.99683333 93.7475,5.9345 C93.6301667,6.00783333 93.54125,6.08666667 93.48075,6.171 C93.42025,6.25533333 93.39,6.33783333 93.39,6.4185 C93.39,6.5505 93.4431667,6.65041667 93.5495,6.71825 C93.6558333,6.78608333 93.797,6.83466667 93.973,6.864 C94.149,6.89333333 94.3488333,6.91166667 94.5725,6.919 C94.7961667,6.92633333 95.0244167,6.93825 95.25725,6.95475 C95.4900833,6.97125 95.7183333,6.99966667 95.942,7.04 C96.1656667,7.08033333 96.3655,7.14633333 96.5415,7.238 C96.7175,7.32966667 96.8586667,7.45616667 96.965,7.6175 C97.0713333,7.77883333 97.1245,7.98783333 97.1245,8.2445 C97.1245,8.48283333 97.0649167,8.71383333 96.94575,8.9375 C96.8265833,9.16116667 96.6551667,9.36008333 96.4315,9.53425 C96.2078333,9.70841667 95.9346667,9.84775 95.612,9.95225 C95.2893333,10.05675 94.9245,10.109 94.5175,10.109 C94.1105,10.109 93.7539167,10.0686667 93.44775,9.988 C93.1415833,9.90733333 92.8876667,9.79916667 92.686,9.6635 C92.4843333,9.52783333 92.3330833,9.37108333 92.23225,9.19325 C92.1314167,9.01541667 92.081,8.82933333 92.081,8.635 C92.081,8.36 92.1680833,8.12625 92.34225,7.93375 C92.5164167,7.74125 92.7556667,7.58816667 93.06,7.4745 C92.9023333,7.40116667 92.77675,7.30308333 92.68325,7.18025 C92.58975,7.05741667 92.543,6.89333333 92.543,6.688 C92.543,6.60733333 92.5576667,6.52391667 92.587,6.43775 C92.6163333,6.35158333 92.66125,6.26633333 92.72175,6.182 C92.78225,6.09766667 92.8565,6.017 92.9445,5.94 C93.0325,5.863 93.1351667,5.79516667 93.2525,5.7365 C92.9775,5.5825 92.7620833,5.37808333 92.60625,5.12325 C92.4504167,4.86841667 92.3725,4.5705 92.3725,4.2295 C92.3725,3.95816667 92.42475,3.71158333 92.52925,3.48975 C92.63375,3.26791667 92.7795,3.07908333 92.9665,2.92325 C93.1535,2.76741667 93.37625,2.64733333 93.63475,2.563 C93.89325,2.47866667 94.1765,2.4365 94.4845,2.4365 Z M96.2225,8.404 C96.2225,8.26466667 96.184,8.15283333 96.107,8.0685 C96.03,7.98416667 95.9255,7.91908333 95.7935,7.87325 C95.6615,7.82741667 95.5093333,7.7935 95.337,7.7715 C95.1646667,7.7495 94.9831667,7.73391667 94.7925,7.72475 C94.6018333,7.71558333 94.4075,7.7055 94.2095,7.6945 C94.0115,7.6835 93.8226667,7.66333333 93.643,7.634 C93.434,7.733 93.2644167,7.854 93.13425,7.997 C93.0040833,8.14 92.939,8.3105 92.939,8.5085 C92.939,8.63316667 92.9710833,8.74958333 93.03525,8.85775 C93.0994167,8.96591667 93.1975,9.05941667 93.3295,9.13825 C93.4615,9.21708333 93.6274167,9.27941667 93.82725,9.32525 C94.0270833,9.37108333 94.2626667,9.394 94.534,9.394 C94.798,9.394 95.0345,9.37016667 95.2435,9.3225 C95.4525,9.27483333 95.6294167,9.207 95.77425,9.119 C95.9190833,9.031 96.03,8.9265 96.107,8.8055 C96.184,8.6845 96.2225,8.55066667 96.2225,8.404 Z M94.4845,5.379 C94.6825,5.379 94.8575833,5.3515 95.00975,5.2965 C95.1619167,5.2415 95.2893333,5.1645 95.392,5.0655 C95.4946667,4.9665 95.5716667,4.84825 95.623,4.71075 C95.6743333,4.57325 95.7,4.422 95.7,4.257 C95.7,3.916 95.5964167,3.64466667 95.38925,3.443 C95.1820833,3.24133333 94.8805,3.1405 94.4845,3.1405 C94.0921667,3.1405 93.7924167,3.24133333 93.58525,3.443 C93.3780833,3.64466667 93.2745,3.916 93.2745,4.257 C93.2745,4.422 93.3010833,4.57325 93.35425,4.71075 C93.4074167,4.84825 93.4853333,4.9665 93.588,5.0655 C93.6906667,5.1645 93.8171667,5.2415 93.9675,5.2965 C94.1178333,5.3515 94.2901667,5.379 94.4845,5.379 Z" id="Shape" fill="#21252B"></path>
                    <path d="M102.322,8.1015 L101.8875,8.1015 C101.792167,8.1015 101.715167,8.08683333 101.6565,8.0575 C101.597833,8.02816667 101.559333,7.96583333 101.541,7.8705 L101.431,7.3535 C101.284333,7.4855 101.141333,7.60375 101.002,7.70825 C100.862667,7.81275 100.716,7.90075 100.562,7.97225 C100.408,8.04375 100.243917,8.09783333 100.06975,8.1345 C99.8955833,8.17116667 99.7021667,8.1895 99.4895,8.1895 C99.2731667,8.1895 99.0705833,8.15925 98.88175,8.09875 C98.6929167,8.03825 98.5288333,7.9475 98.3895,7.8265 C98.2501667,7.7055 98.13925,7.55241667 98.05675,7.36725 C97.97425,7.18208333 97.933,6.963 97.933,6.71 C97.933,6.49 97.9935,6.27825 98.1145,6.07475 C98.2355,5.87125 98.43075,5.69066667 98.70025,5.533 C98.96975,5.37533333 99.3226667,5.24608333 99.759,5.14525 C100.195333,5.04441667 100.728833,4.98666667 101.3595,4.972 L101.3595,4.5375 C101.3595,4.10483333 101.266917,3.77758333 101.08175,3.55575 C100.896583,3.33391667 100.6225,3.223 100.2595,3.223 C100.021167,3.223 99.8204167,3.25325 99.65725,3.31375 C99.4940833,3.37425 99.3529167,3.44208333 99.23375,3.51725 C99.1145833,3.59241667 99.0119167,3.66025 98.92575,3.72075 C98.8395833,3.78125 98.7543333,3.8115 98.67,3.8115 C98.604,3.8115 98.54625,3.79408333 98.49675,3.75925 C98.44725,3.72441667 98.4078333,3.68133333 98.3785,3.63 L98.2025,3.3165 C98.5105,3.0195 98.8423333,2.79766667 99.198,2.651 C99.5536667,2.50433333 99.9478333,2.431 100.3805,2.431 C100.692167,2.431 100.969,2.48233333 101.211,2.585 C101.453,2.68766667 101.6565,2.83066667 101.8215,3.014 C101.9865,3.19733333 102.111167,3.41916667 102.1955,3.6795 C102.279833,3.93983333 102.322,4.22583333 102.322,4.5375 L102.322,8.1015 Z M99.781,7.502 C99.9533333,7.502 100.111,7.48458333 100.254,7.44975 C100.397,7.41491667 100.53175,7.36541667 100.65825,7.30125 C100.78475,7.23708333 100.90575,7.15916667 101.02125,7.0675 C101.13675,6.97583333 101.2495,6.87133333 101.3595,6.754 L101.3595,5.5935 C100.9085,5.60816667 100.525333,5.64391667 100.21,5.70075 C99.8946667,5.75758333 99.638,5.83183333 99.44,5.9235 C99.242,6.01516667 99.0980833,6.12333333 99.00825,6.248 C98.9184167,6.37266667 98.8735,6.512 98.8735,6.666 C98.8735,6.81266667 98.8973333,6.93916667 98.945,7.0455 C98.9926667,7.15183333 99.0568333,7.23891667 99.1375,7.30675 C99.2181667,7.37458333 99.3135,7.42408333 99.4235,7.45525 C99.5335,7.48641667 99.6526667,7.502 99.781,7.502 Z" id="Shape" fill="#21252B"></path>
                    <path d="M103.807,8.1015 L103.807,2.53 L104.368,2.53 C104.474333,2.53 104.547667,2.55016667 104.588,2.5905 C104.628333,2.63083333 104.655833,2.7005 104.6705,2.7995 L104.7365,3.6685 C104.927167,3.27983333 105.16275,2.97641667 105.44325,2.75825 C105.72375,2.54008333 106.052833,2.431 106.4305,2.431 C106.5845,2.431 106.723833,2.44841667 106.8485,2.48325 C106.973167,2.51808333 107.088667,2.56666667 107.195,2.629 L107.0685,3.3605 C107.042833,3.45216667 106.986,3.498 106.898,3.498 C106.846667,3.498 106.767833,3.48058333 106.6615,3.44575 C106.555167,3.41091667 106.406667,3.3935 106.216,3.3935 C105.875,3.3935 105.589917,3.4925 105.36075,3.6905 C105.131583,3.8885 104.94,4.17633333 104.786,4.554 L104.786,8.1015 L103.807,8.1015 Z" id="Path" fill="#21252B"></path>
                    <path d="M112.1615,8.1015 C112.022167,8.1015 111.934167,8.03366667 111.8975,7.898 L111.8095,7.2215 C111.571167,7.51116667 111.298917,7.74308333 110.99275,7.91725 C110.686583,8.09141667 110.3355,8.1785 109.9395,8.1785 C109.6205,8.1785 109.330833,8.11708333 109.0705,7.99425 C108.810167,7.87141667 108.588333,7.69083333 108.405,7.4525 C108.221667,7.21416667 108.0805,6.91716667 107.9815,6.5615 C107.8825,6.20583333 107.833,5.797 107.833,5.335 C107.833,4.92433333 107.888,4.54208333 107.998,4.18825 C108.108,3.83441667 108.266583,3.52733333 108.47375,3.267 C108.680917,3.00666667 108.933,2.80225 109.23,2.65375 C109.527,2.50525 109.864333,2.431 110.242,2.431 C110.583,2.431 110.8745,2.48875 111.1165,2.60425 C111.3585,2.71975 111.574833,2.882 111.7655,3.091 L111.7655,0 L112.7445,0 L112.7445,8.1015 L112.1615,8.1015 Z M110.264,7.3865 C110.583,7.3865 110.862583,7.31316667 111.10275,7.1665 C111.342917,7.01983333 111.563833,6.81266667 111.7655,6.545 L111.7655,3.85 C111.585833,3.608 111.38875,3.43841667 111.17425,3.34125 C110.95975,3.24408333 110.722333,3.1955 110.462,3.1955 C109.941333,3.1955 109.541667,3.38066667 109.263,3.751 C108.984333,4.12133333 108.845,4.64933333 108.845,5.335 C108.845,5.698 108.876167,6.00875 108.9385,6.26725 C109.000833,6.52575 109.0925,6.73841667 109.2135,6.90525 C109.3345,7.07208333 109.483,7.194 109.659,7.271 C109.835,7.348 110.036667,7.3865 110.264,7.3865 Z" id="Shape" fill="#21252B"></path>
                    <path d="M116.5945,2.442 C116.928167,2.442 117.236167,2.49791667 117.5185,2.60975 C117.800833,2.72158333 118.044667,2.88291667 118.25,3.09375 C118.455333,3.30458333 118.61575,3.56491667 118.73125,3.87475 C118.84675,4.18458333 118.9045,4.5375 118.9045,4.9335 C118.9045,5.0875 118.888,5.19016667 118.855,5.2415 C118.822,5.29283333 118.759667,5.3185 118.668,5.3185 L114.961,5.3185 C114.968333,5.6705 115.016,5.97666667 115.104,6.237 C115.192,6.49733333 115.313,6.71458333 115.467,6.88875 C115.621,7.06291667 115.804333,7.19308333 116.017,7.27925 C116.229667,7.36541667 116.468,7.4085 116.732,7.4085 C116.977667,7.4085 117.189417,7.38008333 117.36725,7.32325 C117.545083,7.26641667 117.698167,7.205 117.8265,7.139 C117.954833,7.073 118.062083,7.01158333 118.14825,6.95475 C118.234417,6.89791667 118.308667,6.8695 118.371,6.8695 C118.451667,6.8695 118.514,6.90066667 118.558,6.963 L118.833,7.3205 C118.712,7.46716667 118.567167,7.59458333 118.3985,7.70275 C118.229833,7.81091667 118.04925,7.89983333 117.85675,7.9695 C117.66425,8.03916667 117.465333,8.09141667 117.26,8.12625 C117.054667,8.16108333 116.851167,8.1785 116.6495,8.1785 C116.2645,8.1785 115.90975,8.11341667 115.58525,7.98325 C115.26075,7.85308333 114.98025,7.66241667 114.74375,7.41125 C114.50725,7.16008333 114.323,6.84933333 114.191,6.479 C114.059,6.10866667 113.993,5.68333333 113.993,5.203 C113.993,4.81433333 114.052583,4.45133333 114.17175,4.114 C114.290917,3.77666667 114.462333,3.48425 114.686,3.23675 C114.909667,2.98925 115.182833,2.79491667 115.5055,2.65375 C115.828167,2.51258333 116.191167,2.442 116.5945,2.442 Z M116.6165,3.1625 C116.1435,3.1625 115.771333,3.29908333 115.5,3.57225 C115.228667,3.84541667 115.06,4.224 114.994,4.708 L118.0245,4.708 C118.0245,4.48066667 117.993333,4.27258333 117.931,4.08375 C117.868667,3.89491667 117.777,3.73175 117.656,3.59425 C117.535,3.45675 117.387417,3.35041667 117.21325,3.27525 C117.039083,3.20008333 116.840167,3.1625 116.6165,3.1625 Z" id="Shape" fill="#21252B"></path>
                </g>
            </g>
            <g id="Snitem-Application-Osiris-Logo-ss-baseline-def">
                <g id="Group" transform="translate(22.1064, 20.0118)" fill="#3965AE" fill-rule="nonzero">
                    <path d="M23.8097757,46.424482 C14.2932713,44.8794517 7.03554803,36.6760765 7.03554803,26.7805253 C7.03554803,16.8849741 14.2932713,8.64481242 23.8097757,7.09978212 L23.8097757,0 C10.4052052,1.58181674 0,12.9488254 0,26.7805253 C0,40.5754387 10.4052052,51.9424474 23.8097757,53.5610506 L23.8097757,46.424482 Z" id="Path"></path>
                    <path d="M30.2158273,0 L30.2158273,7.09978212 C39.7323318,8.64481242 46.990055,16.8481876 46.990055,26.7437389 C46.990055,36.6392901 39.7323318,44.8794517 30.2158273,46.3876956 L30.2158273,53.4874777 C43.6203978,51.905661 54.025603,40.5386523 54.025603,26.7069524 C54.025603,12.9488254 43.6203978,1.58181674 30.2158273,0 Z" id="Path"></path>
                </g>
                <g id="Group">
                    <path d="M2.22175201,43.4447807 L11.6641981,43.4447807 C12.8861617,43.4447807 13.8859501,44.4380145 13.8859501,45.6519669 C13.8859501,46.8659193 12.8861617,47.859153 11.6641981,47.859153 L2.22175201,47.859153 C0.999788405,47.859153 0,46.8659193 0,45.6519669 C0,44.4380145 0.999788405,43.4447807 2.22175201,43.4447807 Z" id="Path" fill="#D93C8A"></path>
                    <path d="M18.6256877,13.5741948 L25.5131189,20.4532583 C26.4018197,21.3361328 26.4018197,22.7708038 25.5501481,23.6168918 C24.6984765,24.4997663 23.2543377,24.4629798 22.3656369,23.5801054 L15.4782057,16.7378283 C14.5895049,15.8549538 14.5895049,14.4202829 15.4411765,13.5741948 C16.3298773,12.6545339 17.7369869,12.6913204 18.6256877,13.5741948 Z" id="Path" fill="#C32033"></path>
                    <path d="M46.6567922,11.6613002 L46.6567922,2.20718615 C46.6567922,0.993233768 47.6565806,0 48.8785442,0 C50.1005078,0 51.1002962,0.993233768 51.1002962,2.20718615 L51.1002962,11.6613002 C51.1002962,12.8752525 50.1005078,13.8684863 48.8785442,13.8684863 C47.6565806,13.8684863 46.6567922,12.8752525 46.6567922,11.6613002 Z" id="Path" fill="#3965AE"></path>
                    <path d="M70.8368599,21.188987 L77.7242912,14.34671 C78.6870504,13.3902626 80.2052476,13.4638355 81.0569192,14.5306422 C81.9085908,15.5606624 81.8345324,17.1056927 80.8717732,18.0253536 L73.9843419,24.4629798 C73.1696995,25.235495 71.7996191,25.1619221 70.9479475,24.3158341 C70.0962759,23.3961732 70.0222175,22.0350751 70.8368599,21.188987 Z" id="Path" fill="#F9AE33"></path>
                    <path d="M13.4786289,73.4992988 L20.3290309,66.6202353 C21.2917901,65.663788 22.8099873,65.7373609 23.6616589,66.8041675 C24.5133305,67.8341877 24.4392721,69.379218 23.4765129,70.2988789 L16.5890817,76.7365052 C15.7744393,77.5090203 14.4043589,77.4354475 13.5526873,76.5893594 C12.7010157,75.6696985 12.6269573,74.3086004 13.4786289,73.4992988 Z" id="Path" fill="#A7BE2F"></path>
                </g>
                <path d="M93.1654676,74.1982411 C90.3512484,74.0878818 87.7962336,73.3153666 85.4263648,71.9542685 C82.7602624,70.4092382 80.9088024,68.3124114 79.9460432,65.7005744 L85.9818028,63.4933883 C86.4631824,64.7809135 87.5,65.8477202 89.0181972,66.6570218 C90.3882776,67.355964 91.8694456,67.7238284 93.4617012,67.7974013 C95.9426576,67.9077606 97.9792636,67.2823912 99.5715193,65.9948659 C100.9416,64.8912728 101.645154,63.640534 101.719213,62.205863 C101.8303,59.5204532 99.0160813,57.3500535 93.239526,55.7314503 C84.2044012,53.1931862 79.7979264,48.8891732 80.09416,42.8561978 C80.279306,38.6257576 82.0937368,35.4253377 85.5744816,33.3285109 C88.2035548,31.7099077 91.388066,31.0109654 95.090986,31.1581112 C99.5715193,31.3420433 103.200381,32.9238601 105.903512,35.8299885 L101.200804,40.2075744 C99.6455777,38.5521848 97.5349132,37.6693103 94.7947524,37.558951 C92.869234,37.4853781 91.20292,37.7428832 89.8698688,38.2946797 C87.7592044,39.2143406 86.6112992,40.7961574 86.5372408,43.1137028 C86.4261532,45.7623262 89.2403724,47.8959395 95.0169276,49.5145426 C100.238045,50.9860001 103.903936,53.1196134 106.088658,55.9521689 C107.569826,57.90185 108.273381,60.1090362 108.199323,62.4633681 C108.051206,65.8109337 106.533009,68.6434893 103.644731,70.9610347 C100.978629,73.094648 97.7570884,74.1614547 94.0171392,74.1614547 C93.6838764,74.2350275 93.3876428,74.2350275 93.1654676,74.1982411 Z" id="Path" fill="#3965AE" fill-rule="nonzero"></path>
                <polygon id="Path" fill="#3965AE" fill-rule="nonzero" points="119.715404 73.8303767 113.309353 73.8303767 113.309353 31.6731213 119.715404 31.6731213"></polygon>
                <path d="M156.559458,73.8303767 L149.301735,73.8303767 L140.044435,56.0625282 L132.786712,56.0625282 L132.786712,73.8303767 L126.38066,73.8303767 L126.38066,31.6363348 L142.006983,31.6363348 C145.37664,31.6363348 148.264917,32.8502872 150.634786,35.2414055 C153.041684,37.6325239 154.226619,40.5018659 154.226619,43.886218 C154.226619,46.3509092 153.523064,48.6316682 152.115954,50.6549222 C150.745874,52.6781761 148.968472,54.1496336 146.74672,55.0692945 L156.559458,73.8303767 Z M142.006983,49.6616884 C143.599238,49.6616884 144.969319,49.1098919 146.117224,47.9327259 C147.2281,46.8291328 147.820567,45.4680347 147.820567,43.8494315 C147.820567,42.2308284 147.265129,40.8697302 146.117224,39.7293507 C144.969319,38.5889712 143.599238,38.0003882 142.006983,38.0003882 L132.823741,38.0003882 L132.823741,49.6616884 L142.006983,49.6616884 Z" id="Shape" fill="#3965AE" fill-rule="nonzero"></path>
                <polygon id="Path" fill="#3965AE" fill-rule="nonzero" points="166.66843 73.8303767 160.262378 73.8303767 160.262378 31.6731213 166.66843 31.6731213"></polygon>
                <path d="M184.960855,74.1982411 C182.146636,74.0878818 179.591621,73.3153666 177.221752,71.9542685 C174.55565,70.4092382 172.70419,68.3124114 171.74143,65.7005744 L177.77719,63.4933883 C178.25857,64.7809135 179.295387,65.8477202 180.813584,66.6570218 C182.183665,67.355964 183.664833,67.7238284 185.257088,67.7974013 C187.738045,67.9077606 189.774651,67.2823912 191.366906,65.9948659 C192.736987,64.8912728 193.440542,63.640534 193.5146,62.205863 C193.625688,59.5204532 190.811468,57.3500535 185.034913,55.7314503 C175.999788,53.1931862 171.593314,48.8891732 171.889547,42.8561978 C172.074693,38.6257576 173.889124,35.4253377 177.369869,33.3285109 C179.998942,31.7099077 183.183453,31.0109654 186.886373,31.1581112 C191.366906,31.3420433 194.995768,32.9238601 197.6989,35.8299885 L192.996191,40.2075744 C191.440965,38.5521848 189.3303,37.6693103 186.59014,37.558951 C184.664621,37.4853781 182.998307,37.7428832 181.665256,38.2946797 C179.554592,39.2143406 178.406686,40.7961574 178.332628,43.1137028 C178.22154,45.7623262 181.03576,47.8959395 186.812315,49.5145426 C192.033432,50.9860001 195.699323,53.1196134 197.884046,55.9521689 C199.365214,57.90185 200.068769,60.1090362 199.99471,62.4633681 C199.846593,65.8109337 198.328396,68.6434893 195.440118,70.9610347 C192.774016,73.094648 189.552476,74.1614547 185.812526,74.1614547 C185.479264,74.2350275 185.220059,74.2350275 184.960855,74.1982411 Z" id="Path" fill="#3965AE" fill-rule="nonzero"></path>
                <path d="M49.1377486,46.75556 L61.3203555,34.6160361 C59.7280999,33.0342194 57.8025815,31.7466941 55.7289463,30.9006061 C53.655311,30.0545181 51.3965298,29.5762944 49.1377486,29.5762944 L49.1377486,46.75556 Z" id="Path" fill="#54B0C6"></path>
                <path d="M53.655311,45.0265975 L70.8738891,45.0265975 C70.8738891,42.7826249 70.4295387,40.5386523 69.5778671,38.4418255 C68.7261955,36.3449986 67.4301735,34.4688904 65.8379179,32.8502872 L53.655311,45.0265975 Z" id="Path" fill="#A7BE2F"></path>
                <path d="M49.1377486,46.75556 L61.3203555,58.8950838 C62.9126111,57.313267 64.1716039,55.4003724 65.0603047,53.3035455 C65.9119763,51.2067187 66.3563267,48.9995325 66.3563267,46.7187735 L49.1377486,46.7187735 L49.1377486,46.75556 Z" id="Path" fill="#F9AE33"></path>
                <path d="M49.1377486,46.75556 L49.1377486,63.9348255 C51.3965298,63.9348255 53.655311,63.4933883 55.7289463,62.6105138 C57.8025815,61.7644258 59.7280999,60.4769005 61.3203555,58.8950838 L49.1377486,46.75556 Z" id="Path" fill="#EE754D"></path>
                <path d="M49.1377486,46.75556 L36.9551418,58.8950838 C38.5473974,60.4769005 40.4729158,61.7644258 42.546551,62.6105138 C44.6201862,63.4566018 46.8789674,63.9348255 49.1377486,63.9348255 L49.1377486,46.75556 Z" id="Path" fill="#D93C8A"></path>
                <path d="M49.1377486,46.75556 L31.8821413,46.75556 C31.8821413,48.9995325 32.3264917,51.2435051 33.1781634,53.340332 C34.029835,55.4371588 35.325857,57.313267 36.9181126,58.9318702 L49.1377486,46.75556 Z" id="Path" fill="#C32033"></path>
                <path d="M49.1377486,46.75556 L36.9551418,34.6160361 C35.3628862,36.1978529 34.1038934,38.1107475 33.2151926,40.2075744 C32.3635209,42.3044012 31.9191705,44.5115874 31.9191705,46.7923464 L49.1377486,46.7923464 L49.1377486,46.75556 Z" id="Path" fill="#41236F"></path>
                <path d="M49.1377486,46.75556 L49.1377486,29.5762944 C46.8789674,29.5762944 44.6201862,30.0177317 42.546551,30.9006061 C40.4729158,31.7466941 38.5473974,33.0342194 36.9551418,34.6160361 L49.1377486,46.75556 Z" id="Path" fill="#3965AE"></path>
            </g>
        </g>
    </g>
</svg>